G04 EAGLE Gerber RS-274X export*
G75*
%MOMM*%
%FSLAX34Y34*%
%LPD*%
%INTop Copper*%
%IPPOS*%
%AMOC8*
5,1,8,0,0,1.08239X$1,22.5*%
G01*
%ADD10C,2.032000*%
%ADD11C,1.828800*%
%ADD12C,1.879600*%
%ADD13C,1.625600*%
%ADD14C,1.000000*%
%ADD15R,1.800000X1.800000*%
%ADD16C,0.009000*%

G36*
X360043Y-9D02*
X360043Y-9D01*
X360039Y-4D01*
X360044Y0D01*
X360044Y635000D01*
X360009Y635043D01*
X360004Y635039D01*
X360000Y635044D01*
X0Y635044D01*
X-43Y635009D01*
X-39Y635004D01*
X-44Y635000D01*
X-44Y0D01*
X-9Y-43D01*
X-4Y-39D01*
X0Y-44D01*
X360000Y-44D01*
X360043Y-9D01*
G37*
%LPC*%
G36*
X21101Y12967D02*
X21101Y12967D01*
X18516Y14038D01*
X16538Y16016D01*
X15467Y18601D01*
X15467Y533923D01*
X15432Y533966D01*
X15427Y533962D01*
X15423Y533967D01*
X12658Y533967D01*
X11467Y535158D01*
X11467Y554842D01*
X12658Y556033D01*
X32342Y556033D01*
X33533Y554842D01*
X33533Y535158D01*
X32342Y533967D01*
X29577Y533967D01*
X29534Y533932D01*
X29535Y533930D01*
X29534Y533929D01*
X29536Y533926D01*
X29533Y533923D01*
X29533Y27077D01*
X29568Y27034D01*
X29573Y27038D01*
X29577Y27033D01*
X290423Y27033D01*
X290466Y27068D01*
X290464Y27071D01*
X290466Y27072D01*
X290464Y27075D01*
X290467Y27077D01*
X290467Y112923D01*
X290432Y112966D01*
X290427Y112962D01*
X290423Y112967D01*
X253577Y112967D01*
X253534Y112932D01*
X253538Y112927D01*
X253533Y112923D01*
X253533Y110158D01*
X252342Y108967D01*
X232658Y108967D01*
X231467Y110158D01*
X231467Y129842D01*
X232658Y131033D01*
X252342Y131033D01*
X253533Y129842D01*
X253533Y127077D01*
X253568Y127034D01*
X253573Y127038D01*
X253577Y127033D01*
X298899Y127033D01*
X301484Y125962D01*
X303462Y123984D01*
X304533Y121399D01*
X304533Y18601D01*
X303462Y16016D01*
X301484Y14038D01*
X298899Y12967D01*
X21101Y12967D01*
G37*
%LPD*%
%LPC*%
G36*
X285158Y278967D02*
X285158Y278967D01*
X283967Y280158D01*
X283967Y299842D01*
X285158Y301033D01*
X304842Y301033D01*
X306033Y299842D01*
X306033Y297077D01*
X306068Y297034D01*
X306073Y297038D01*
X306077Y297033D01*
X330423Y297033D01*
X330466Y297068D01*
X330462Y297073D01*
X330467Y297077D01*
X330467Y607923D01*
X330432Y607966D01*
X330427Y607962D01*
X330423Y607967D01*
X54577Y607967D01*
X54534Y607932D01*
X54538Y607927D01*
X54533Y607923D01*
X54533Y426077D01*
X54568Y426034D01*
X54573Y426038D01*
X54577Y426033D01*
X57342Y426033D01*
X58533Y424842D01*
X58533Y405158D01*
X57342Y403967D01*
X37658Y403967D01*
X36467Y405158D01*
X36467Y424842D01*
X37658Y426033D01*
X40423Y426033D01*
X40466Y426068D01*
X40463Y426072D01*
X40466Y426074D01*
X40466Y426076D01*
X40467Y426077D01*
X40467Y616399D01*
X41538Y618984D01*
X43516Y620962D01*
X46101Y622033D01*
X338899Y622033D01*
X341484Y620962D01*
X343462Y618984D01*
X344533Y616399D01*
X344533Y288601D01*
X343462Y286016D01*
X341484Y284038D01*
X338899Y282967D01*
X306077Y282967D01*
X306034Y282932D01*
X306038Y282927D01*
X306033Y282923D01*
X306033Y280158D01*
X304842Y278967D01*
X285158Y278967D01*
G37*
%LPD*%
%LPC*%
G36*
X295158Y413967D02*
X295158Y413967D01*
X293967Y415158D01*
X293967Y434842D01*
X295158Y436033D01*
X297923Y436033D01*
X297966Y436068D01*
X297963Y436072D01*
X297966Y436075D01*
X297966Y436076D01*
X297967Y436077D01*
X297967Y582923D01*
X297932Y582966D01*
X297927Y582962D01*
X297923Y582967D01*
X82077Y582967D01*
X82034Y582932D01*
X82038Y582927D01*
X82033Y582923D01*
X82033Y476077D01*
X82068Y476034D01*
X82073Y476038D01*
X82077Y476033D01*
X84842Y476033D01*
X86033Y474842D01*
X86033Y455158D01*
X84842Y453967D01*
X65158Y453967D01*
X63967Y455158D01*
X63967Y474842D01*
X65158Y476033D01*
X67923Y476033D01*
X67966Y476068D01*
X67962Y476073D01*
X67967Y476077D01*
X67967Y591399D01*
X69038Y593984D01*
X71016Y595962D01*
X73601Y597033D01*
X306399Y597033D01*
X308984Y595962D01*
X310962Y593984D01*
X312033Y591399D01*
X312033Y436077D01*
X312068Y436034D01*
X312073Y436038D01*
X312077Y436033D01*
X314842Y436033D01*
X316033Y434842D01*
X316033Y415158D01*
X314842Y413967D01*
X295158Y413967D01*
G37*
%LPD*%
%LPC*%
G36*
X205158Y128967D02*
X205158Y128967D01*
X203967Y130158D01*
X203967Y137923D01*
X203932Y137966D01*
X203927Y137962D01*
X203923Y137967D01*
X98601Y137967D01*
X96016Y139038D01*
X94038Y141016D01*
X92967Y143601D01*
X92967Y183923D01*
X92932Y183966D01*
X92927Y183962D01*
X92923Y183967D01*
X90158Y183967D01*
X88967Y185158D01*
X88967Y204842D01*
X90158Y206033D01*
X109842Y206033D01*
X111033Y204842D01*
X111033Y185158D01*
X109842Y183967D01*
X107077Y183967D01*
X107034Y183932D01*
X107038Y183927D01*
X107033Y183923D01*
X107033Y152077D01*
X107068Y152034D01*
X107073Y152038D01*
X107077Y152033D01*
X216399Y152033D01*
X218805Y151036D01*
X218816Y151040D01*
X218822Y151033D01*
X224842Y151033D01*
X226033Y149842D01*
X226033Y130158D01*
X224842Y128967D01*
X205158Y128967D01*
G37*
%LPD*%
%LPC*%
G36*
X133775Y381677D02*
X133775Y381677D01*
X129293Y383534D01*
X125864Y386963D01*
X124007Y391445D01*
X124007Y396295D01*
X125864Y400777D01*
X129293Y404206D01*
X133775Y406063D01*
X138625Y406063D01*
X143107Y404206D01*
X146536Y400777D01*
X148393Y396295D01*
X148393Y391445D01*
X146536Y386963D01*
X143107Y383534D01*
X138625Y381677D01*
X133775Y381677D01*
G37*
%LPD*%
%LPC*%
G36*
X133775Y353737D02*
X133775Y353737D01*
X129293Y355594D01*
X125864Y359023D01*
X124007Y363505D01*
X124007Y368355D01*
X125864Y372837D01*
X129293Y376266D01*
X133775Y378123D01*
X138625Y378123D01*
X143107Y376266D01*
X146536Y372837D01*
X148393Y368355D01*
X148393Y363505D01*
X146536Y359023D01*
X143107Y355594D01*
X138625Y353737D01*
X133775Y353737D01*
G37*
%LPD*%
%LPC*%
G36*
X133426Y533569D02*
X133426Y533569D01*
X129225Y535310D01*
X126010Y538525D01*
X124269Y542726D01*
X124269Y547274D01*
X126010Y551475D01*
X129225Y554690D01*
X133426Y556431D01*
X137974Y556431D01*
X142175Y554690D01*
X145390Y551475D01*
X147131Y547274D01*
X147131Y542726D01*
X145390Y538525D01*
X142175Y535310D01*
X137974Y533569D01*
X133426Y533569D01*
G37*
%LPD*%
%LPC*%
G36*
X133426Y457369D02*
X133426Y457369D01*
X129225Y459110D01*
X126010Y462325D01*
X124269Y466526D01*
X124269Y471074D01*
X126010Y475275D01*
X129225Y478490D01*
X133426Y480231D01*
X137974Y480231D01*
X142175Y478490D01*
X145390Y475275D01*
X147131Y471074D01*
X147131Y466526D01*
X145390Y462325D01*
X142175Y459110D01*
X137974Y457369D01*
X133426Y457369D01*
G37*
%LPD*%
%LPC*%
G36*
X133226Y309769D02*
X133226Y309769D01*
X129025Y311510D01*
X125810Y314725D01*
X124069Y318926D01*
X124069Y323474D01*
X125810Y327675D01*
X129025Y330890D01*
X133226Y332631D01*
X137774Y332631D01*
X141975Y330890D01*
X145190Y327675D01*
X146931Y323474D01*
X146931Y318926D01*
X145190Y314725D01*
X141975Y311510D01*
X137774Y309769D01*
X133226Y309769D01*
G37*
%LPD*%
%LPC*%
G36*
X133226Y284369D02*
X133226Y284369D01*
X129025Y286110D01*
X125810Y289325D01*
X124069Y293526D01*
X124069Y298074D01*
X125810Y302275D01*
X129025Y305490D01*
X133226Y307231D01*
X137774Y307231D01*
X141975Y305490D01*
X145190Y302275D01*
X146931Y298074D01*
X146931Y293526D01*
X145190Y289325D01*
X141975Y286110D01*
X137774Y284369D01*
X133226Y284369D01*
G37*
%LPD*%
%LPC*%
G36*
X133426Y244469D02*
X133426Y244469D01*
X129225Y246210D01*
X126010Y249425D01*
X124269Y253626D01*
X124269Y258174D01*
X126010Y262375D01*
X129225Y265590D01*
X133426Y267331D01*
X137974Y267331D01*
X142175Y265590D01*
X145390Y262375D01*
X147131Y258174D01*
X147131Y253626D01*
X145390Y249425D01*
X142175Y246210D01*
X137974Y244469D01*
X133426Y244469D01*
G37*
%LPD*%
%LPC*%
G36*
X133426Y168269D02*
X133426Y168269D01*
X129225Y170010D01*
X126010Y173225D01*
X124269Y177426D01*
X124269Y181974D01*
X126010Y186175D01*
X129225Y189390D01*
X133426Y191131D01*
X137974Y191131D01*
X142175Y189390D01*
X145390Y186175D01*
X147131Y181974D01*
X147131Y177426D01*
X145390Y173225D01*
X142175Y170010D01*
X137974Y168269D01*
X133426Y168269D01*
G37*
%LPD*%
%LPC*%
G36*
X127077Y80823D02*
X127077Y80823D01*
X122969Y82525D01*
X119825Y85669D01*
X118123Y89777D01*
X118123Y94223D01*
X119825Y98331D01*
X122969Y101475D01*
X127077Y103177D01*
X131523Y103177D01*
X135631Y101475D01*
X138775Y98331D01*
X140477Y94223D01*
X140477Y89777D01*
X138775Y85669D01*
X135631Y82525D01*
X131523Y80823D01*
X127077Y80823D01*
G37*
%LPD*%
%LPC*%
G36*
X177877Y106223D02*
X177877Y106223D01*
X173769Y107925D01*
X170625Y111069D01*
X168923Y115177D01*
X168923Y119623D01*
X170625Y123731D01*
X173769Y126875D01*
X177877Y128577D01*
X182323Y128577D01*
X186431Y126875D01*
X189575Y123731D01*
X191277Y119623D01*
X191277Y115177D01*
X189575Y111069D01*
X186431Y107925D01*
X182323Y106223D01*
X177877Y106223D01*
G37*
%LPD*%
%LPC*%
G36*
X152477Y106223D02*
X152477Y106223D01*
X148369Y107925D01*
X145225Y111069D01*
X143523Y115177D01*
X143523Y119623D01*
X145225Y123731D01*
X148369Y126875D01*
X152477Y128577D01*
X156923Y128577D01*
X161031Y126875D01*
X164175Y123731D01*
X165877Y119623D01*
X165877Y115177D01*
X164175Y111069D01*
X161031Y107925D01*
X156923Y106223D01*
X152477Y106223D01*
G37*
%LPD*%
%LPC*%
G36*
X127077Y106223D02*
X127077Y106223D01*
X122969Y107925D01*
X119825Y111069D01*
X118123Y115177D01*
X118123Y119623D01*
X119825Y123731D01*
X122969Y126875D01*
X127077Y128577D01*
X131523Y128577D01*
X135631Y126875D01*
X138775Y123731D01*
X140477Y119623D01*
X140477Y115177D01*
X138775Y111069D01*
X135631Y107925D01*
X131523Y106223D01*
X127077Y106223D01*
G37*
%LPD*%
%LPC*%
G36*
X177877Y80823D02*
X177877Y80823D01*
X173769Y82525D01*
X170625Y85669D01*
X168923Y89777D01*
X168923Y94223D01*
X170625Y98331D01*
X173769Y101475D01*
X177877Y103177D01*
X182323Y103177D01*
X186431Y101475D01*
X189575Y98331D01*
X191277Y94223D01*
X191277Y89777D01*
X189575Y85669D01*
X186431Y82525D01*
X182323Y80823D01*
X177877Y80823D01*
G37*
%LPD*%
%LPC*%
G36*
X152477Y80823D02*
X152477Y80823D01*
X148369Y82525D01*
X145225Y85669D01*
X143523Y89777D01*
X143523Y94223D01*
X145225Y98331D01*
X148369Y101475D01*
X152477Y103177D01*
X156923Y103177D01*
X161031Y101475D01*
X164175Y98331D01*
X165877Y94223D01*
X165877Y89777D01*
X164175Y85669D01*
X161031Y82525D01*
X156923Y80823D01*
X152477Y80823D01*
G37*
%LPD*%
%LPC*%
G36*
X178179Y408139D02*
X178179Y408139D01*
X174444Y409686D01*
X171586Y412544D01*
X170039Y416279D01*
X170039Y420321D01*
X171586Y424056D01*
X174444Y426914D01*
X178179Y428461D01*
X182221Y428461D01*
X185956Y426914D01*
X188814Y424056D01*
X190361Y420321D01*
X190361Y416279D01*
X188814Y412544D01*
X185956Y409686D01*
X182221Y408139D01*
X178179Y408139D01*
G37*
%LPD*%
%LPC*%
G36*
X254379Y382739D02*
X254379Y382739D01*
X250644Y384286D01*
X247786Y387144D01*
X246239Y390879D01*
X246239Y394921D01*
X247786Y398656D01*
X250644Y401514D01*
X254379Y403061D01*
X258421Y403061D01*
X262156Y401514D01*
X265014Y398656D01*
X266561Y394921D01*
X266561Y390879D01*
X265014Y387144D01*
X262156Y384286D01*
X258421Y382739D01*
X254379Y382739D01*
G37*
%LPD*%
%LPC*%
G36*
X178179Y382739D02*
X178179Y382739D01*
X174444Y384286D01*
X171586Y387144D01*
X170039Y390879D01*
X170039Y394921D01*
X171586Y398656D01*
X174444Y401514D01*
X178179Y403061D01*
X182221Y403061D01*
X185956Y401514D01*
X188814Y398656D01*
X190361Y394921D01*
X190361Y390879D01*
X188814Y387144D01*
X185956Y384286D01*
X182221Y382739D01*
X178179Y382739D01*
G37*
%LPD*%
%LPC*%
G36*
X254379Y357339D02*
X254379Y357339D01*
X250644Y358886D01*
X247786Y361744D01*
X246239Y365479D01*
X246239Y369521D01*
X247786Y373256D01*
X250644Y376114D01*
X254379Y377661D01*
X258421Y377661D01*
X262156Y376114D01*
X265014Y373256D01*
X266561Y369521D01*
X266561Y365479D01*
X265014Y361744D01*
X262156Y358886D01*
X258421Y357339D01*
X254379Y357339D01*
G37*
%LPD*%
%LPC*%
G36*
X254379Y535139D02*
X254379Y535139D01*
X250644Y536686D01*
X247786Y539544D01*
X246239Y543279D01*
X246239Y547321D01*
X247786Y551056D01*
X250644Y553914D01*
X254379Y555461D01*
X258421Y555461D01*
X262156Y553914D01*
X265014Y551056D01*
X266561Y547321D01*
X266561Y543279D01*
X265014Y539544D01*
X262156Y536686D01*
X258421Y535139D01*
X254379Y535139D01*
G37*
%LPD*%
%LPC*%
G36*
X254379Y331939D02*
X254379Y331939D01*
X250644Y333486D01*
X247786Y336344D01*
X246239Y340079D01*
X246239Y344121D01*
X247786Y347856D01*
X250644Y350714D01*
X254379Y352261D01*
X258421Y352261D01*
X262156Y350714D01*
X265014Y347856D01*
X266561Y344121D01*
X266561Y340079D01*
X265014Y336344D01*
X262156Y333486D01*
X258421Y331939D01*
X254379Y331939D01*
G37*
%LPD*%
%LPC*%
G36*
X178179Y331939D02*
X178179Y331939D01*
X174444Y333486D01*
X171586Y336344D01*
X170039Y340079D01*
X170039Y344121D01*
X171586Y347856D01*
X174444Y350714D01*
X178179Y352261D01*
X182221Y352261D01*
X185956Y350714D01*
X188814Y347856D01*
X190361Y344121D01*
X190361Y340079D01*
X188814Y336344D01*
X185956Y333486D01*
X182221Y331939D01*
X178179Y331939D01*
G37*
%LPD*%
%LPC*%
G36*
X178179Y535139D02*
X178179Y535139D01*
X174444Y536686D01*
X171586Y539544D01*
X170039Y543279D01*
X170039Y547321D01*
X171586Y551056D01*
X174444Y553914D01*
X178179Y555461D01*
X182221Y555461D01*
X185956Y553914D01*
X188814Y551056D01*
X190361Y547321D01*
X190361Y543279D01*
X188814Y539544D01*
X185956Y536686D01*
X182221Y535139D01*
X178179Y535139D01*
G37*
%LPD*%
%LPC*%
G36*
X254379Y306539D02*
X254379Y306539D01*
X250644Y308086D01*
X247786Y310944D01*
X246239Y314679D01*
X246239Y318721D01*
X247786Y322456D01*
X250644Y325314D01*
X254379Y326861D01*
X258421Y326861D01*
X262156Y325314D01*
X265014Y322456D01*
X266561Y318721D01*
X266561Y314679D01*
X265014Y310944D01*
X262156Y308086D01*
X258421Y306539D01*
X254379Y306539D01*
G37*
%LPD*%
%LPC*%
G36*
X178179Y306539D02*
X178179Y306539D01*
X174444Y308086D01*
X171586Y310944D01*
X170039Y314679D01*
X170039Y318721D01*
X171586Y322456D01*
X174444Y325314D01*
X178179Y326861D01*
X182221Y326861D01*
X185956Y325314D01*
X188814Y322456D01*
X190361Y318721D01*
X190361Y314679D01*
X188814Y310944D01*
X185956Y308086D01*
X182221Y306539D01*
X178179Y306539D01*
G37*
%LPD*%
%LPC*%
G36*
X254379Y509739D02*
X254379Y509739D01*
X250644Y511286D01*
X247786Y514144D01*
X246239Y517879D01*
X246239Y521921D01*
X247786Y525656D01*
X250644Y528514D01*
X254379Y530061D01*
X258421Y530061D01*
X262156Y528514D01*
X265014Y525656D01*
X266561Y521921D01*
X266561Y517879D01*
X265014Y514144D01*
X262156Y511286D01*
X258421Y509739D01*
X254379Y509739D01*
G37*
%LPD*%
%LPC*%
G36*
X254379Y281139D02*
X254379Y281139D01*
X250644Y282686D01*
X247786Y285544D01*
X246239Y289279D01*
X246239Y293321D01*
X247786Y297056D01*
X250644Y299914D01*
X254379Y301461D01*
X258421Y301461D01*
X262156Y299914D01*
X265014Y297056D01*
X266561Y293321D01*
X266561Y289279D01*
X265014Y285544D01*
X262156Y282686D01*
X258421Y281139D01*
X254379Y281139D01*
G37*
%LPD*%
%LPC*%
G36*
X178179Y281139D02*
X178179Y281139D01*
X174444Y282686D01*
X171586Y285544D01*
X170039Y289279D01*
X170039Y293321D01*
X171586Y297056D01*
X174444Y299914D01*
X178179Y301461D01*
X182221Y301461D01*
X185956Y299914D01*
X188814Y297056D01*
X190361Y293321D01*
X190361Y289279D01*
X188814Y285544D01*
X185956Y282686D01*
X182221Y281139D01*
X178179Y281139D01*
G37*
%LPD*%
%LPC*%
G36*
X254379Y255739D02*
X254379Y255739D01*
X250644Y257286D01*
X247786Y260144D01*
X246239Y263879D01*
X246239Y267921D01*
X247786Y271656D01*
X250644Y274514D01*
X254379Y276061D01*
X258421Y276061D01*
X262156Y274514D01*
X265014Y271656D01*
X266561Y267921D01*
X266561Y263879D01*
X265014Y260144D01*
X262156Y257286D01*
X258421Y255739D01*
X254379Y255739D01*
G37*
%LPD*%
%LPC*%
G36*
X178179Y255739D02*
X178179Y255739D01*
X174444Y257286D01*
X171586Y260144D01*
X170039Y263879D01*
X170039Y267921D01*
X171586Y271656D01*
X174444Y274514D01*
X178179Y276061D01*
X182221Y276061D01*
X185956Y274514D01*
X188814Y271656D01*
X190361Y267921D01*
X190361Y263879D01*
X188814Y260144D01*
X185956Y257286D01*
X182221Y255739D01*
X178179Y255739D01*
G37*
%LPD*%
%LPC*%
G36*
X178179Y509739D02*
X178179Y509739D01*
X174444Y511286D01*
X171586Y514144D01*
X170039Y517879D01*
X170039Y521921D01*
X171586Y525656D01*
X174444Y528514D01*
X178179Y530061D01*
X182221Y530061D01*
X185956Y528514D01*
X188814Y525656D01*
X190361Y521921D01*
X190361Y517879D01*
X188814Y514144D01*
X185956Y511286D01*
X182221Y509739D01*
X178179Y509739D01*
G37*
%LPD*%
%LPC*%
G36*
X254379Y230339D02*
X254379Y230339D01*
X250644Y231886D01*
X247786Y234744D01*
X246239Y238479D01*
X246239Y242521D01*
X247786Y246256D01*
X250644Y249114D01*
X254379Y250661D01*
X258421Y250661D01*
X262156Y249114D01*
X265014Y246256D01*
X266561Y242521D01*
X266561Y238479D01*
X265014Y234744D01*
X262156Y231886D01*
X258421Y230339D01*
X254379Y230339D01*
G37*
%LPD*%
%LPC*%
G36*
X254379Y484339D02*
X254379Y484339D01*
X250644Y485886D01*
X247786Y488744D01*
X246239Y492479D01*
X246239Y496521D01*
X247786Y500256D01*
X250644Y503114D01*
X254379Y504661D01*
X258421Y504661D01*
X262156Y503114D01*
X265014Y500256D01*
X266561Y496521D01*
X266561Y492479D01*
X265014Y488744D01*
X262156Y485886D01*
X258421Y484339D01*
X254379Y484339D01*
G37*
%LPD*%
%LPC*%
G36*
X254379Y204939D02*
X254379Y204939D01*
X250644Y206486D01*
X247786Y209344D01*
X246239Y213079D01*
X246239Y217121D01*
X247786Y220856D01*
X250644Y223714D01*
X254379Y225261D01*
X258421Y225261D01*
X262156Y223714D01*
X265014Y220856D01*
X266561Y217121D01*
X266561Y213079D01*
X265014Y209344D01*
X262156Y206486D01*
X258421Y204939D01*
X254379Y204939D01*
G37*
%LPD*%
%LPC*%
G36*
X178179Y204939D02*
X178179Y204939D01*
X174444Y206486D01*
X171586Y209344D01*
X170039Y213079D01*
X170039Y217121D01*
X171586Y220856D01*
X174444Y223714D01*
X178179Y225261D01*
X182221Y225261D01*
X185956Y223714D01*
X188814Y220856D01*
X190361Y217121D01*
X190361Y213079D01*
X188814Y209344D01*
X185956Y206486D01*
X182221Y204939D01*
X178179Y204939D01*
G37*
%LPD*%
%LPC*%
G36*
X178179Y484339D02*
X178179Y484339D01*
X174444Y485886D01*
X171586Y488744D01*
X170039Y492479D01*
X170039Y496521D01*
X171586Y500256D01*
X174444Y503114D01*
X178179Y504661D01*
X182221Y504661D01*
X185956Y503114D01*
X188814Y500256D01*
X190361Y496521D01*
X190361Y492479D01*
X188814Y488744D01*
X185956Y485886D01*
X182221Y484339D01*
X178179Y484339D01*
G37*
%LPD*%
%LPC*%
G36*
X254379Y458939D02*
X254379Y458939D01*
X250644Y460486D01*
X247786Y463344D01*
X246239Y467079D01*
X246239Y471121D01*
X247786Y474856D01*
X250644Y477714D01*
X254379Y479261D01*
X258421Y479261D01*
X262156Y477714D01*
X265014Y474856D01*
X266561Y471121D01*
X266561Y467079D01*
X265014Y463344D01*
X262156Y460486D01*
X258421Y458939D01*
X254379Y458939D01*
G37*
%LPD*%
%LPC*%
G36*
X178179Y357339D02*
X178179Y357339D01*
X174444Y358886D01*
X171586Y361744D01*
X170039Y365479D01*
X170039Y369521D01*
X171586Y373256D01*
X174444Y376114D01*
X178179Y377661D01*
X182221Y377661D01*
X185956Y376114D01*
X188814Y373256D01*
X190361Y369521D01*
X190361Y365479D01*
X188814Y361744D01*
X185956Y358886D01*
X182221Y357339D01*
X178179Y357339D01*
G37*
%LPD*%
%LPC*%
G36*
X178179Y458939D02*
X178179Y458939D01*
X174444Y460486D01*
X171586Y463344D01*
X170039Y467079D01*
X170039Y471121D01*
X171586Y474856D01*
X174444Y477714D01*
X178179Y479261D01*
X182221Y479261D01*
X185956Y477714D01*
X188814Y474856D01*
X190361Y471121D01*
X190361Y467079D01*
X188814Y463344D01*
X185956Y460486D01*
X182221Y458939D01*
X178179Y458939D01*
G37*
%LPD*%
%LPC*%
G36*
X254379Y433539D02*
X254379Y433539D01*
X250644Y435086D01*
X247786Y437944D01*
X246239Y441679D01*
X246239Y445721D01*
X247786Y449456D01*
X250644Y452314D01*
X254379Y453861D01*
X258421Y453861D01*
X262156Y452314D01*
X265014Y449456D01*
X266561Y445721D01*
X266561Y441679D01*
X265014Y437944D01*
X262156Y435086D01*
X258421Y433539D01*
X254379Y433539D01*
G37*
%LPD*%
%LPC*%
G36*
X178179Y433539D02*
X178179Y433539D01*
X174444Y435086D01*
X171586Y437944D01*
X170039Y441679D01*
X170039Y445721D01*
X171586Y449456D01*
X174444Y452314D01*
X178179Y453861D01*
X182221Y453861D01*
X185956Y452314D01*
X188814Y449456D01*
X190361Y445721D01*
X190361Y441679D01*
X188814Y437944D01*
X185956Y435086D01*
X182221Y433539D01*
X178179Y433539D01*
G37*
%LPD*%
%LPC*%
G36*
X254379Y408139D02*
X254379Y408139D01*
X250644Y409686D01*
X247786Y412544D01*
X246239Y416279D01*
X246239Y420321D01*
X247786Y424056D01*
X250644Y426914D01*
X254379Y428461D01*
X258421Y428461D01*
X262156Y426914D01*
X265014Y424056D01*
X266561Y420321D01*
X266561Y416279D01*
X265014Y412544D01*
X262156Y409686D01*
X258421Y408139D01*
X254379Y408139D01*
G37*
%LPD*%
%LPC*%
G36*
X178179Y230339D02*
X178179Y230339D01*
X174444Y231886D01*
X171586Y234744D01*
X170039Y238479D01*
X170039Y242521D01*
X171586Y246256D01*
X174444Y249114D01*
X178179Y250661D01*
X182221Y250661D01*
X185956Y249114D01*
X188814Y246256D01*
X190361Y242521D01*
X190361Y238479D01*
X188814Y234744D01*
X185956Y231886D01*
X182221Y230339D01*
X178179Y230339D01*
G37*
%LPD*%
D10*
X136200Y365930D03*
X136200Y393870D03*
D11*
X129300Y92000D03*
X154700Y92000D03*
X180100Y92000D03*
X180100Y117400D03*
X154700Y117400D03*
X129300Y117400D03*
D12*
X135500Y295800D03*
X135500Y321200D03*
X135700Y255900D03*
X135700Y179700D03*
X135700Y545000D03*
X135700Y468800D03*
D13*
X180200Y545300D03*
X180200Y519900D03*
X180200Y494500D03*
X180200Y469100D03*
X180200Y443700D03*
X180200Y418300D03*
X180200Y392900D03*
X180200Y367500D03*
X180200Y342100D03*
X180200Y316700D03*
X180200Y291300D03*
X180200Y265900D03*
X180200Y240500D03*
X180200Y215100D03*
X256400Y215100D03*
X256400Y240500D03*
X256400Y265900D03*
X256400Y291300D03*
X256400Y316700D03*
X256400Y342100D03*
X256400Y367500D03*
X256400Y392900D03*
X256400Y418300D03*
X256400Y443700D03*
X256400Y469100D03*
X256400Y494500D03*
X256400Y519900D03*
X256400Y545300D03*
D14*
X305000Y590000D02*
X75000Y590000D01*
X305000Y590000D02*
X305000Y425000D01*
D15*
X305000Y425000D03*
X75000Y465000D03*
D14*
X75000Y590000D01*
D15*
X215000Y140000D03*
D14*
X215000Y145000D01*
X100000Y145000D01*
X100000Y195000D01*
D15*
X100000Y195000D03*
D14*
X47500Y615000D02*
X337500Y615000D01*
D15*
X295000Y290000D03*
D14*
X337500Y290000D02*
X337500Y615000D01*
X337500Y290000D02*
X295000Y290000D01*
D15*
X47500Y415000D03*
D14*
X47500Y615000D01*
D15*
X242500Y120000D03*
D14*
X297500Y120000D01*
X297500Y20000D01*
X22500Y20000D01*
X22500Y545000D01*
D15*
X22500Y545000D03*
D16*
X0Y0D02*
X360000Y0D01*
X0Y0D02*
X0Y635000D01*
X360000Y635000D01*
X360000Y0D01*
M02*
