G04 EAGLE Gerber RS-274X export*
G75*
%MOMM*%
%FSLAX34Y34*%
%LPD*%
%INSilkscreen Bottom*%
%IPPOS*%
%AMOC8*
5,1,8,0,0,1.08239X$1,22.5*%
G01*
%ADD10C,0.203200*%
%ADD11C,0.025400*%
%ADD12C,0.254000*%


D10*
X135650Y75490D02*
X122950Y75490D01*
D11*
X121662Y324906D02*
X123126Y323150D01*
X123125Y323150D02*
X122778Y322849D01*
X122438Y322540D01*
X122105Y322223D01*
X121780Y321898D01*
X121463Y321566D01*
X121154Y321226D01*
X120853Y320878D01*
X120560Y320524D01*
X120277Y320162D01*
X120002Y319794D01*
X119735Y319419D01*
X119478Y319038D01*
X119230Y318651D01*
X118992Y318259D01*
X118763Y317860D01*
X118543Y317456D01*
X118333Y317048D01*
X118133Y316634D01*
X117943Y316215D01*
X117764Y315792D01*
X117594Y315365D01*
X117435Y314934D01*
X117286Y314499D01*
X117147Y314061D01*
X117019Y313620D01*
X116902Y313175D01*
X116795Y312728D01*
X116699Y312279D01*
X116614Y311827D01*
X116540Y311374D01*
X116476Y310918D01*
X116424Y310462D01*
X116382Y310004D01*
X116352Y309546D01*
X116332Y309086D01*
X116323Y308627D01*
X114038Y308626D01*
X114037Y308627D01*
X114047Y309142D01*
X114068Y309657D01*
X114102Y310171D01*
X114148Y310684D01*
X114207Y311196D01*
X114278Y311706D01*
X114361Y312215D01*
X114456Y312721D01*
X114564Y313225D01*
X114683Y313726D01*
X114814Y314224D01*
X114958Y314719D01*
X115113Y315210D01*
X115280Y315698D01*
X115459Y316181D01*
X115649Y316660D01*
X115850Y317134D01*
X116063Y317603D01*
X116287Y318067D01*
X116522Y318526D01*
X116769Y318978D01*
X117025Y319425D01*
X117293Y319865D01*
X117571Y320299D01*
X117859Y320726D01*
X118158Y321146D01*
X118467Y321558D01*
X118785Y321964D01*
X119113Y322361D01*
X119450Y322750D01*
X119797Y323131D01*
X120153Y323504D01*
X120517Y323868D01*
X120890Y324223D01*
X121272Y324569D01*
X121662Y324906D01*
X121816Y324722D01*
X121430Y324389D01*
X121053Y324047D01*
X120684Y323695D01*
X120324Y323335D01*
X119972Y322967D01*
X119629Y322590D01*
X119296Y322205D01*
X118971Y321812D01*
X118657Y321412D01*
X118352Y321004D01*
X118056Y320589D01*
X117771Y320167D01*
X117496Y319738D01*
X117232Y319302D01*
X116978Y318861D01*
X116735Y318413D01*
X116502Y317960D01*
X116281Y317502D01*
X116070Y317038D01*
X115871Y316569D01*
X115683Y316095D01*
X115506Y315618D01*
X115341Y315136D01*
X115188Y314650D01*
X115046Y314161D01*
X114916Y313668D01*
X114798Y313173D01*
X114692Y312675D01*
X114597Y312174D01*
X114515Y311671D01*
X114445Y311167D01*
X114387Y310661D01*
X114342Y310153D01*
X114308Y309645D01*
X114287Y309136D01*
X114277Y308627D01*
X114517Y308627D01*
X114526Y309130D01*
X114548Y309633D01*
X114581Y310136D01*
X114626Y310637D01*
X114683Y311138D01*
X114753Y311636D01*
X114834Y312133D01*
X114927Y312628D01*
X115032Y313121D01*
X115149Y313610D01*
X115277Y314097D01*
X115417Y314581D01*
X115569Y315061D01*
X115732Y315537D01*
X115907Y316010D01*
X116093Y316478D01*
X116290Y316941D01*
X116498Y317400D01*
X116717Y317853D01*
X116947Y318301D01*
X117187Y318744D01*
X117438Y319180D01*
X117700Y319610D01*
X117972Y320034D01*
X118253Y320452D01*
X118545Y320862D01*
X118847Y321265D01*
X119158Y321661D01*
X119478Y322050D01*
X119808Y322430D01*
X120147Y322803D01*
X120494Y323167D01*
X120851Y323523D01*
X121215Y323870D01*
X121588Y324208D01*
X121969Y324538D01*
X122123Y324353D01*
X121746Y324028D01*
X121378Y323693D01*
X121017Y323350D01*
X120665Y322998D01*
X120322Y322638D01*
X119987Y322270D01*
X119661Y321894D01*
X119344Y321510D01*
X119037Y321119D01*
X118739Y320720D01*
X118450Y320314D01*
X118172Y319902D01*
X117903Y319483D01*
X117645Y319058D01*
X117397Y318626D01*
X117159Y318189D01*
X116932Y317746D01*
X116715Y317298D01*
X116510Y316845D01*
X116315Y316387D01*
X116131Y315924D01*
X115959Y315457D01*
X115797Y314986D01*
X115647Y314512D01*
X115509Y314034D01*
X115382Y313553D01*
X115266Y313069D01*
X115163Y312582D01*
X115070Y312093D01*
X114990Y311601D01*
X114922Y311109D01*
X114865Y310614D01*
X114820Y310118D01*
X114787Y309622D01*
X114766Y309124D01*
X114757Y308627D01*
X114997Y308627D01*
X115006Y309119D01*
X115027Y309610D01*
X115060Y310101D01*
X115104Y310591D01*
X115160Y311079D01*
X115228Y311567D01*
X115307Y312052D01*
X115398Y312535D01*
X115501Y313016D01*
X115615Y313495D01*
X115740Y313970D01*
X115877Y314443D01*
X116025Y314912D01*
X116185Y315377D01*
X116355Y315838D01*
X116537Y316296D01*
X116729Y316748D01*
X116933Y317196D01*
X117146Y317639D01*
X117371Y318077D01*
X117606Y318509D01*
X117851Y318935D01*
X118107Y319355D01*
X118372Y319770D01*
X118647Y320177D01*
X118932Y320578D01*
X119227Y320972D01*
X119531Y321359D01*
X119844Y321738D01*
X120166Y322110D01*
X120497Y322474D01*
X120836Y322830D01*
X121184Y323177D01*
X121540Y323517D01*
X121904Y323847D01*
X122277Y324169D01*
X122430Y323984D01*
X122063Y323667D01*
X121703Y323340D01*
X121351Y323005D01*
X121007Y322661D01*
X120671Y322310D01*
X120345Y321950D01*
X120026Y321583D01*
X119717Y321208D01*
X119417Y320825D01*
X119126Y320436D01*
X118844Y320040D01*
X118572Y319637D01*
X118310Y319228D01*
X118058Y318813D01*
X117815Y318391D01*
X117583Y317964D01*
X117361Y317532D01*
X117150Y317094D01*
X116949Y316652D01*
X116759Y316204D01*
X116579Y315753D01*
X116411Y315297D01*
X116253Y314837D01*
X116107Y314374D01*
X115972Y313907D01*
X115848Y313437D01*
X115735Y312964D01*
X115633Y312489D01*
X115544Y312011D01*
X115465Y311532D01*
X115398Y311050D01*
X115343Y310567D01*
X115299Y310083D01*
X115267Y309598D01*
X115246Y309113D01*
X115237Y308627D01*
X115477Y308627D01*
X115486Y309107D01*
X115507Y309587D01*
X115538Y310066D01*
X115582Y310544D01*
X115636Y311021D01*
X115703Y311497D01*
X115780Y311971D01*
X115869Y312442D01*
X115969Y312912D01*
X116081Y313379D01*
X116203Y313843D01*
X116337Y314305D01*
X116482Y314762D01*
X116637Y315217D01*
X116804Y315667D01*
X116981Y316113D01*
X117169Y316555D01*
X117367Y316993D01*
X117576Y317425D01*
X117795Y317852D01*
X118025Y318274D01*
X118264Y318690D01*
X118513Y319101D01*
X118772Y319505D01*
X119041Y319903D01*
X119319Y320294D01*
X119607Y320679D01*
X119903Y321057D01*
X120209Y321427D01*
X120523Y321790D01*
X120846Y322145D01*
X121178Y322493D01*
X121517Y322832D01*
X121865Y323163D01*
X122221Y323486D01*
X122584Y323800D01*
X122737Y323616D01*
X122379Y323305D01*
X122028Y322987D01*
X121684Y322659D01*
X121349Y322324D01*
X121021Y321981D01*
X120702Y321630D01*
X120392Y321271D01*
X120090Y320905D01*
X119797Y320532D01*
X119513Y320152D01*
X119238Y319766D01*
X118973Y319373D01*
X118717Y318973D01*
X118470Y318568D01*
X118234Y318157D01*
X118007Y317740D01*
X117791Y317318D01*
X117585Y316891D01*
X117389Y316459D01*
X117203Y316022D01*
X117028Y315581D01*
X116863Y315137D01*
X116710Y314688D01*
X116567Y314236D01*
X116435Y313780D01*
X116313Y313321D01*
X116203Y312860D01*
X116104Y312396D01*
X116017Y311930D01*
X115940Y311462D01*
X115875Y310992D01*
X115820Y310521D01*
X115778Y310048D01*
X115746Y309575D01*
X115726Y309101D01*
X115717Y308627D01*
X115957Y308627D01*
X115966Y309095D01*
X115986Y309563D01*
X116017Y310031D01*
X116059Y310497D01*
X116113Y310963D01*
X116177Y311427D01*
X116253Y311889D01*
X116340Y312350D01*
X116438Y312808D01*
X116546Y313264D01*
X116666Y313716D01*
X116797Y314166D01*
X116938Y314613D01*
X117090Y315056D01*
X117252Y315496D01*
X117425Y315931D01*
X117608Y316362D01*
X117802Y316789D01*
X118006Y317211D01*
X118220Y317628D01*
X118443Y318039D01*
X118677Y318445D01*
X118920Y318846D01*
X119173Y319240D01*
X119435Y319629D01*
X119706Y320010D01*
X119987Y320386D01*
X120276Y320754D01*
X120574Y321116D01*
X120881Y321470D01*
X121196Y321816D01*
X121519Y322156D01*
X121851Y322487D01*
X122190Y322810D01*
X122537Y323125D01*
X122891Y323431D01*
X123045Y323247D01*
X122695Y322944D01*
X122352Y322633D01*
X122017Y322314D01*
X121690Y321987D01*
X121371Y321652D01*
X121060Y321310D01*
X120757Y320960D01*
X120463Y320603D01*
X120177Y320239D01*
X119900Y319869D01*
X119632Y319491D01*
X119373Y319108D01*
X119123Y318718D01*
X118883Y318323D01*
X118653Y317922D01*
X118432Y317515D01*
X118221Y317104D01*
X118019Y316687D01*
X117828Y316266D01*
X117647Y315840D01*
X117476Y315410D01*
X117316Y314976D01*
X117166Y314538D01*
X117026Y314097D01*
X116898Y313653D01*
X116779Y313206D01*
X116672Y312756D01*
X116575Y312303D01*
X116490Y311849D01*
X116415Y311392D01*
X116351Y310934D01*
X116298Y310474D01*
X116256Y310013D01*
X116226Y309552D01*
X116206Y309089D01*
X116197Y308627D01*
X114038Y308374D02*
X116324Y308374D01*
X116323Y308373D02*
X116332Y307908D01*
X116352Y307443D01*
X116383Y306979D01*
X116426Y306516D01*
X116480Y306054D01*
X116545Y305593D01*
X116621Y305134D01*
X116708Y304677D01*
X116806Y304222D01*
X116916Y303770D01*
X117036Y303320D01*
X117167Y302874D01*
X117309Y302431D01*
X117462Y301991D01*
X117625Y301556D01*
X117799Y301124D01*
X117983Y300697D01*
X118177Y300274D01*
X118382Y299856D01*
X118597Y299443D01*
X118822Y299036D01*
X119056Y298634D01*
X119300Y298238D01*
X119554Y297848D01*
X119817Y297464D01*
X120090Y297087D01*
X120371Y296717D01*
X120661Y296353D01*
X120960Y295997D01*
X121268Y295648D01*
X121584Y295306D01*
X121908Y294972D01*
X122241Y294647D01*
X122581Y294329D01*
X122928Y294020D01*
X123283Y293719D01*
X123645Y293427D01*
X124015Y293144D01*
X124391Y292870D01*
X124773Y292605D01*
X125162Y292349D01*
X125557Y292103D01*
X125958Y291867D01*
X126364Y291640D01*
X125289Y289623D01*
X125288Y289623D01*
X124833Y289877D01*
X124383Y290141D01*
X123941Y290417D01*
X123505Y290703D01*
X123076Y291000D01*
X122654Y291306D01*
X122240Y291624D01*
X121834Y291951D01*
X121436Y292288D01*
X121047Y292634D01*
X120665Y292990D01*
X120293Y293355D01*
X119930Y293729D01*
X119575Y294111D01*
X119230Y294502D01*
X118895Y294902D01*
X118570Y295309D01*
X118254Y295724D01*
X117949Y296147D01*
X117654Y296577D01*
X117370Y297014D01*
X117096Y297458D01*
X116833Y297908D01*
X116581Y298365D01*
X116341Y298827D01*
X116111Y299296D01*
X115893Y299769D01*
X115687Y300248D01*
X115492Y300732D01*
X115310Y301220D01*
X115139Y301713D01*
X114980Y302210D01*
X114833Y302710D01*
X114698Y303214D01*
X114576Y303721D01*
X114466Y304230D01*
X114369Y304743D01*
X114284Y305257D01*
X114211Y305774D01*
X114151Y306291D01*
X114104Y306811D01*
X114069Y307331D01*
X114047Y307852D01*
X114037Y308373D01*
X114277Y308373D01*
X114287Y307858D01*
X114309Y307343D01*
X114343Y306828D01*
X114390Y306315D01*
X114449Y305803D01*
X114521Y305292D01*
X114605Y304784D01*
X114702Y304277D01*
X114810Y303773D01*
X114931Y303272D01*
X115064Y302774D01*
X115209Y302279D01*
X115367Y301788D01*
X115536Y301301D01*
X115716Y300819D01*
X115909Y300340D01*
X116113Y299867D01*
X116328Y299398D01*
X116555Y298935D01*
X116793Y298478D01*
X117042Y298027D01*
X117302Y297581D01*
X117572Y297143D01*
X117853Y296710D01*
X118145Y296285D01*
X118447Y295867D01*
X118759Y295457D01*
X119081Y295054D01*
X119412Y294659D01*
X119753Y294273D01*
X120103Y293894D01*
X120463Y293525D01*
X120831Y293164D01*
X121208Y292812D01*
X121593Y292469D01*
X121987Y292136D01*
X122388Y291813D01*
X122797Y291499D01*
X123214Y291196D01*
X123638Y290903D01*
X124069Y290620D01*
X124507Y290347D01*
X124951Y290086D01*
X125401Y289835D01*
X125514Y290046D01*
X125069Y290294D01*
X124630Y290553D01*
X124197Y290822D01*
X123771Y291102D01*
X123352Y291392D01*
X122940Y291692D01*
X122536Y292002D01*
X122139Y292322D01*
X121750Y292651D01*
X121369Y292990D01*
X120996Y293338D01*
X120632Y293694D01*
X120277Y294060D01*
X119931Y294434D01*
X119594Y294816D01*
X119266Y295206D01*
X118948Y295605D01*
X118640Y296010D01*
X118341Y296424D01*
X118053Y296844D01*
X117775Y297271D01*
X117507Y297705D01*
X117251Y298145D01*
X117004Y298591D01*
X116769Y299043D01*
X116545Y299501D01*
X116332Y299964D01*
X116130Y300432D01*
X115940Y300905D01*
X115761Y301382D01*
X115594Y301864D01*
X115439Y302349D01*
X115296Y302838D01*
X115164Y303331D01*
X115044Y303826D01*
X114937Y304324D01*
X114842Y304825D01*
X114758Y305328D01*
X114687Y305832D01*
X114629Y306339D01*
X114582Y306846D01*
X114548Y307355D01*
X114527Y307864D01*
X114517Y308373D01*
X114757Y308373D01*
X114767Y307870D01*
X114788Y307366D01*
X114822Y306864D01*
X114868Y306362D01*
X114926Y305862D01*
X114996Y305363D01*
X115078Y304866D01*
X115172Y304371D01*
X115279Y303879D01*
X115397Y303389D01*
X115527Y302902D01*
X115669Y302419D01*
X115822Y301939D01*
X115987Y301463D01*
X116164Y300991D01*
X116352Y300524D01*
X116551Y300062D01*
X116762Y299604D01*
X116984Y299151D01*
X117216Y298705D01*
X117459Y298263D01*
X117713Y297828D01*
X117978Y297400D01*
X118252Y296977D01*
X118537Y296562D01*
X118832Y296154D01*
X119137Y295752D01*
X119451Y295359D01*
X119775Y294973D01*
X120108Y294595D01*
X120451Y294225D01*
X120802Y293864D01*
X121162Y293512D01*
X121530Y293168D01*
X121906Y292833D01*
X122291Y292508D01*
X122683Y292192D01*
X123083Y291885D01*
X123490Y291589D01*
X123904Y291302D01*
X124325Y291025D01*
X124753Y290759D01*
X125187Y290503D01*
X125627Y290258D01*
X125740Y290470D01*
X125305Y290712D01*
X124876Y290965D01*
X124454Y291228D01*
X124037Y291502D01*
X123628Y291785D01*
X123226Y292078D01*
X122831Y292381D01*
X122443Y292693D01*
X122063Y293015D01*
X121691Y293346D01*
X121327Y293686D01*
X120971Y294034D01*
X120624Y294391D01*
X120286Y294756D01*
X119957Y295130D01*
X119637Y295511D01*
X119326Y295900D01*
X119025Y296297D01*
X118734Y296700D01*
X118452Y297111D01*
X118180Y297528D01*
X117919Y297952D01*
X117668Y298382D01*
X117428Y298818D01*
X117198Y299259D01*
X116979Y299707D01*
X116771Y300159D01*
X116574Y300616D01*
X116388Y301078D01*
X116213Y301544D01*
X116050Y302014D01*
X115898Y302489D01*
X115758Y302966D01*
X115630Y303447D01*
X115513Y303931D01*
X115408Y304418D01*
X115314Y304907D01*
X115233Y305398D01*
X115164Y305891D01*
X115106Y306386D01*
X115061Y306881D01*
X115028Y307378D01*
X115007Y307876D01*
X114997Y308373D01*
X115237Y308373D01*
X115246Y307882D01*
X115267Y307390D01*
X115300Y306899D01*
X115345Y306409D01*
X115402Y305921D01*
X115471Y305433D01*
X115551Y304948D01*
X115643Y304465D01*
X115747Y303984D01*
X115862Y303506D01*
X115989Y303030D01*
X116128Y302558D01*
X116278Y302090D01*
X116439Y301625D01*
X116612Y301164D01*
X116796Y300708D01*
X116990Y300256D01*
X117196Y299809D01*
X117412Y299367D01*
X117639Y298931D01*
X117877Y298500D01*
X118125Y298075D01*
X118383Y297657D01*
X118651Y297244D01*
X118930Y296839D01*
X119218Y296440D01*
X119515Y296048D01*
X119822Y295664D01*
X120139Y295287D01*
X120464Y294918D01*
X120798Y294557D01*
X121141Y294204D01*
X121492Y293859D01*
X121852Y293524D01*
X122220Y293197D01*
X122595Y292879D01*
X122978Y292570D01*
X123368Y292271D01*
X123766Y291981D01*
X124171Y291701D01*
X124582Y291431D01*
X124999Y291171D01*
X125423Y290921D01*
X125853Y290682D01*
X125966Y290894D01*
X125541Y291130D01*
X125123Y291377D01*
X124710Y291634D01*
X124304Y291901D01*
X123904Y292178D01*
X123511Y292464D01*
X123126Y292760D01*
X122747Y293065D01*
X122376Y293379D01*
X122013Y293702D01*
X121658Y294033D01*
X121311Y294374D01*
X120972Y294722D01*
X120642Y295079D01*
X120320Y295444D01*
X120008Y295816D01*
X119704Y296196D01*
X119410Y296583D01*
X119126Y296977D01*
X118851Y297378D01*
X118586Y297785D01*
X118331Y298199D01*
X118086Y298619D01*
X117851Y299044D01*
X117627Y299475D01*
X117413Y299912D01*
X117210Y300354D01*
X117017Y300800D01*
X116836Y301251D01*
X116665Y301706D01*
X116506Y302165D01*
X116358Y302628D01*
X116221Y303094D01*
X116095Y303564D01*
X115981Y304037D01*
X115878Y304512D01*
X115787Y304989D01*
X115708Y305469D01*
X115640Y305950D01*
X115584Y306433D01*
X115540Y306917D01*
X115507Y307402D01*
X115486Y307887D01*
X115477Y308373D01*
X115717Y308373D01*
X115726Y307893D01*
X115747Y307414D01*
X115779Y306935D01*
X115823Y306456D01*
X115878Y305979D01*
X115945Y305504D01*
X116024Y305030D01*
X116114Y304559D01*
X116215Y304089D01*
X116328Y303622D01*
X116452Y303159D01*
X116587Y302698D01*
X116734Y302241D01*
X116891Y301787D01*
X117060Y301337D01*
X117239Y300892D01*
X117429Y300451D01*
X117630Y300015D01*
X117841Y299583D01*
X118063Y299157D01*
X118294Y298737D01*
X118536Y298322D01*
X118789Y297914D01*
X119050Y297511D01*
X119322Y297115D01*
X119603Y296726D01*
X119894Y296343D01*
X120193Y295968D01*
X120502Y295600D01*
X120819Y295240D01*
X121146Y294888D01*
X121480Y294544D01*
X121823Y294207D01*
X122174Y293880D01*
X122533Y293561D01*
X122899Y293250D01*
X123273Y292949D01*
X123654Y292657D01*
X124042Y292374D01*
X124437Y292101D01*
X124838Y291837D01*
X125246Y291583D01*
X125659Y291339D01*
X126079Y291105D01*
X126192Y291317D01*
X125778Y291548D01*
X125369Y291789D01*
X124966Y292040D01*
X124570Y292300D01*
X124180Y292570D01*
X123797Y292850D01*
X123421Y293138D01*
X123051Y293436D01*
X122689Y293742D01*
X122335Y294058D01*
X121988Y294381D01*
X121650Y294713D01*
X121319Y295054D01*
X120997Y295402D01*
X120683Y295757D01*
X120379Y296121D01*
X120083Y296491D01*
X119796Y296869D01*
X119518Y297253D01*
X119250Y297645D01*
X118991Y298042D01*
X118742Y298446D01*
X118503Y298855D01*
X118274Y299271D01*
X118055Y299691D01*
X117847Y300117D01*
X117648Y300548D01*
X117461Y300984D01*
X117283Y301424D01*
X117117Y301868D01*
X116962Y302316D01*
X116817Y302768D01*
X116683Y303223D01*
X116561Y303681D01*
X116449Y304142D01*
X116349Y304605D01*
X116260Y305071D01*
X116183Y305539D01*
X116117Y306009D01*
X116062Y306480D01*
X116018Y306952D01*
X115987Y307425D01*
X115966Y307899D01*
X115957Y308373D01*
X116197Y308373D01*
X116206Y307905D01*
X116226Y307437D01*
X116258Y306970D01*
X116301Y306503D01*
X116355Y306038D01*
X116420Y305574D01*
X116497Y305112D01*
X116585Y304652D01*
X116684Y304194D01*
X116794Y303739D01*
X116915Y303287D01*
X117047Y302837D01*
X117189Y302391D01*
X117343Y301949D01*
X117507Y301510D01*
X117682Y301076D01*
X117868Y300646D01*
X118063Y300220D01*
X118270Y299799D01*
X118486Y299384D01*
X118712Y298974D01*
X118948Y298569D01*
X119194Y298171D01*
X119449Y297778D01*
X119714Y297392D01*
X119988Y297012D01*
X120272Y296639D01*
X120564Y296273D01*
X120865Y295914D01*
X121175Y295563D01*
X121493Y295219D01*
X121819Y294883D01*
X122154Y294555D01*
X122496Y294236D01*
X122846Y293924D01*
X123203Y293621D01*
X123568Y293328D01*
X123940Y293042D01*
X124318Y292767D01*
X124703Y292500D01*
X125095Y292243D01*
X125492Y291995D01*
X125896Y291757D01*
X126305Y291529D01*
X156962Y308626D02*
X154676Y308626D01*
X154677Y308627D02*
X154668Y309095D01*
X154647Y309563D01*
X154616Y310031D01*
X154573Y310498D01*
X154518Y310963D01*
X154452Y311427D01*
X154375Y311889D01*
X154287Y312349D01*
X154187Y312807D01*
X154076Y313263D01*
X153954Y313715D01*
X153821Y314164D01*
X153677Y314610D01*
X153523Y315053D01*
X153357Y315491D01*
X153181Y315925D01*
X152994Y316355D01*
X152797Y316780D01*
X152590Y317200D01*
X152372Y317615D01*
X152144Y318025D01*
X151907Y318429D01*
X151659Y318827D01*
X151402Y319218D01*
X151135Y319604D01*
X150859Y319983D01*
X150574Y320354D01*
X150280Y320719D01*
X149977Y321077D01*
X149665Y321427D01*
X149345Y321769D01*
X149017Y322103D01*
X148681Y322429D01*
X148336Y322747D01*
X147984Y323057D01*
X149461Y324801D01*
X149461Y324802D01*
X149856Y324455D01*
X150242Y324099D01*
X150619Y323734D01*
X150988Y323359D01*
X151347Y322976D01*
X151696Y322583D01*
X152036Y322183D01*
X152366Y321774D01*
X152686Y321357D01*
X152995Y320933D01*
X153294Y320501D01*
X153583Y320062D01*
X153860Y319616D01*
X154127Y319163D01*
X154382Y318704D01*
X154626Y318239D01*
X154859Y317768D01*
X155080Y317291D01*
X155289Y316809D01*
X155487Y316322D01*
X155672Y315831D01*
X155846Y315335D01*
X156007Y314835D01*
X156156Y314331D01*
X156292Y313824D01*
X156416Y313313D01*
X156528Y312800D01*
X156627Y312284D01*
X156713Y311766D01*
X156787Y311246D01*
X156847Y310724D01*
X156895Y310201D01*
X156931Y309677D01*
X156953Y309152D01*
X156963Y308627D01*
X156723Y308627D01*
X156713Y309146D01*
X156691Y309665D01*
X156656Y310183D01*
X156609Y310700D01*
X156548Y311216D01*
X156476Y311730D01*
X156390Y312243D01*
X156293Y312753D01*
X156182Y313260D01*
X156060Y313765D01*
X155925Y314267D01*
X155777Y314765D01*
X155618Y315259D01*
X155447Y315749D01*
X155263Y316235D01*
X155068Y316716D01*
X154861Y317193D01*
X154643Y317664D01*
X154413Y318130D01*
X154171Y318590D01*
X153919Y319043D01*
X153655Y319491D01*
X153381Y319932D01*
X153096Y320366D01*
X152800Y320793D01*
X152494Y321213D01*
X152178Y321625D01*
X151852Y322029D01*
X151516Y322425D01*
X151170Y322813D01*
X150815Y323192D01*
X150451Y323562D01*
X150078Y323924D01*
X149696Y324276D01*
X149306Y324619D01*
X149151Y324435D01*
X149537Y324097D01*
X149914Y323749D01*
X150283Y323391D01*
X150643Y323025D01*
X150994Y322650D01*
X151335Y322267D01*
X151667Y321875D01*
X151990Y321476D01*
X152302Y321069D01*
X152605Y320654D01*
X152897Y320232D01*
X153179Y319802D01*
X153450Y319366D01*
X153711Y318924D01*
X153960Y318475D01*
X154199Y318021D01*
X154426Y317560D01*
X154642Y317095D01*
X154847Y316624D01*
X155040Y316148D01*
X155221Y315667D01*
X155390Y315183D01*
X155548Y314694D01*
X155693Y314202D01*
X155827Y313706D01*
X155948Y313207D01*
X156057Y312705D01*
X156154Y312201D01*
X156238Y311695D01*
X156310Y311186D01*
X156370Y310676D01*
X156417Y310165D01*
X156451Y309653D01*
X156473Y309140D01*
X156483Y308627D01*
X156243Y308627D01*
X156233Y309134D01*
X156212Y309641D01*
X156177Y310147D01*
X156131Y310653D01*
X156072Y311157D01*
X156001Y311659D01*
X155918Y312160D01*
X155822Y312658D01*
X155714Y313154D01*
X155594Y313647D01*
X155462Y314137D01*
X155318Y314624D01*
X155163Y315107D01*
X154995Y315586D01*
X154816Y316061D01*
X154625Y316531D01*
X154423Y316996D01*
X154210Y317457D01*
X153985Y317912D01*
X153749Y318361D01*
X153502Y318805D01*
X153245Y319242D01*
X152977Y319673D01*
X152698Y320097D01*
X152410Y320514D01*
X152111Y320924D01*
X151802Y321327D01*
X151483Y321722D01*
X151155Y322109D01*
X150817Y322488D01*
X150470Y322858D01*
X150115Y323220D01*
X149750Y323573D01*
X149377Y323917D01*
X148996Y324252D01*
X148841Y324069D01*
X149218Y323738D01*
X149586Y323398D01*
X149946Y323049D01*
X150298Y322691D01*
X150641Y322325D01*
X150974Y321951D01*
X151299Y321568D01*
X151614Y321178D01*
X151919Y320780D01*
X152214Y320375D01*
X152500Y319962D01*
X152775Y319543D01*
X153040Y319117D01*
X153294Y318685D01*
X153538Y318247D01*
X153771Y317803D01*
X153993Y317353D01*
X154204Y316898D01*
X154404Y316438D01*
X154592Y315973D01*
X154770Y315504D01*
X154935Y315031D01*
X155089Y314553D01*
X155231Y314072D01*
X155362Y313588D01*
X155480Y313101D01*
X155587Y312611D01*
X155681Y312118D01*
X155764Y311624D01*
X155834Y311127D01*
X155892Y310629D01*
X155938Y310129D01*
X155972Y309629D01*
X155993Y309128D01*
X156003Y308627D01*
X155763Y308627D01*
X155753Y309122D01*
X155732Y309617D01*
X155699Y310112D01*
X155653Y310605D01*
X155596Y311097D01*
X155526Y311588D01*
X155445Y312077D01*
X155351Y312563D01*
X155246Y313048D01*
X155129Y313529D01*
X155000Y314008D01*
X154860Y314483D01*
X154707Y314955D01*
X154544Y315422D01*
X154369Y315886D01*
X154183Y316345D01*
X153985Y316800D01*
X153777Y317249D01*
X153557Y317694D01*
X153327Y318132D01*
X153086Y318566D01*
X152835Y318993D01*
X152573Y319413D01*
X152301Y319828D01*
X152019Y320235D01*
X151727Y320636D01*
X151425Y321029D01*
X151114Y321414D01*
X150794Y321792D01*
X150464Y322162D01*
X150126Y322524D01*
X149778Y322878D01*
X149422Y323223D01*
X149058Y323559D01*
X148686Y323886D01*
X148531Y323703D01*
X148899Y323379D01*
X149258Y323047D01*
X149610Y322707D01*
X149953Y322357D01*
X150288Y322000D01*
X150613Y321634D01*
X150930Y321261D01*
X151237Y320880D01*
X151535Y320491D01*
X151824Y320096D01*
X152102Y319693D01*
X152371Y319284D01*
X152630Y318868D01*
X152878Y318446D01*
X153116Y318018D01*
X153343Y317585D01*
X153560Y317146D01*
X153766Y316701D01*
X153961Y316252D01*
X154145Y315799D01*
X154318Y315341D01*
X154480Y314879D01*
X154630Y314413D01*
X154769Y313943D01*
X154896Y313470D01*
X155012Y312995D01*
X155116Y312516D01*
X155208Y312035D01*
X155289Y311552D01*
X155358Y311068D01*
X155415Y310581D01*
X155459Y310094D01*
X155492Y309605D01*
X155514Y309116D01*
X155523Y308627D01*
X155283Y308627D01*
X155274Y309110D01*
X155253Y309593D01*
X155220Y310076D01*
X155176Y310558D01*
X155120Y311038D01*
X155052Y311517D01*
X154972Y311994D01*
X154881Y312469D01*
X154778Y312941D01*
X154664Y313411D01*
X154538Y313878D01*
X154401Y314342D01*
X154252Y314802D01*
X154093Y315259D01*
X153922Y315711D01*
X153740Y316160D01*
X153547Y316603D01*
X153344Y317042D01*
X153130Y317476D01*
X152905Y317904D01*
X152670Y318327D01*
X152425Y318743D01*
X152169Y319154D01*
X151904Y319558D01*
X151628Y319956D01*
X151344Y320347D01*
X151049Y320731D01*
X150746Y321107D01*
X150433Y321476D01*
X150111Y321837D01*
X149781Y322190D01*
X149442Y322535D01*
X149095Y322872D01*
X148739Y323200D01*
X148376Y323519D01*
X148221Y323336D01*
X148580Y323021D01*
X148931Y322697D01*
X149274Y322364D01*
X149608Y322023D01*
X149935Y321675D01*
X150252Y321318D01*
X150561Y320953D01*
X150861Y320582D01*
X151152Y320203D01*
X151433Y319817D01*
X151705Y319424D01*
X151967Y319024D01*
X152219Y318619D01*
X152462Y318207D01*
X152694Y317790D01*
X152916Y317367D01*
X153127Y316938D01*
X153328Y316505D01*
X153519Y316067D01*
X153698Y315624D01*
X153867Y315177D01*
X154025Y314726D01*
X154171Y314272D01*
X154307Y313814D01*
X154431Y313352D01*
X154544Y312888D01*
X154646Y312421D01*
X154736Y311952D01*
X154814Y311481D01*
X154881Y311008D01*
X154937Y310534D01*
X154981Y310058D01*
X155013Y309581D01*
X155034Y309104D01*
X155043Y308627D01*
X154803Y308627D01*
X154794Y309098D01*
X154773Y309570D01*
X154741Y310040D01*
X154698Y310510D01*
X154643Y310979D01*
X154577Y311446D01*
X154499Y311911D01*
X154410Y312374D01*
X154310Y312835D01*
X154198Y313293D01*
X154076Y313749D01*
X153942Y314201D01*
X153797Y314650D01*
X153641Y315096D01*
X153475Y315537D01*
X153297Y315974D01*
X153109Y316407D01*
X152911Y316835D01*
X152702Y317258D01*
X152483Y317675D01*
X152254Y318088D01*
X152014Y318494D01*
X151765Y318895D01*
X151506Y319289D01*
X151238Y319677D01*
X150960Y320058D01*
X150673Y320433D01*
X150377Y320800D01*
X150072Y321160D01*
X149758Y321512D01*
X149436Y321857D01*
X149105Y322193D01*
X148767Y322521D01*
X148420Y322841D01*
X148066Y323153D01*
X146259Y289928D02*
X145124Y291913D01*
X145125Y291912D02*
X145523Y292150D01*
X145915Y292396D01*
X146300Y292653D01*
X146680Y292918D01*
X147053Y293192D01*
X147419Y293476D01*
X147778Y293768D01*
X148130Y294069D01*
X148475Y294378D01*
X148812Y294695D01*
X149142Y295021D01*
X149463Y295354D01*
X149777Y295695D01*
X150082Y296044D01*
X150378Y296399D01*
X150666Y296762D01*
X150945Y297132D01*
X151215Y297508D01*
X151476Y297891D01*
X151727Y298280D01*
X151969Y298674D01*
X152202Y299075D01*
X152424Y299481D01*
X152637Y299892D01*
X152840Y300309D01*
X153033Y300730D01*
X153215Y301155D01*
X153387Y301585D01*
X153549Y302019D01*
X153700Y302457D01*
X153841Y302898D01*
X153971Y303343D01*
X154090Y303790D01*
X154198Y304240D01*
X154296Y304693D01*
X154382Y305148D01*
X154457Y305605D01*
X154522Y306064D01*
X154575Y306524D01*
X154617Y306985D01*
X154648Y307447D01*
X154668Y307910D01*
X154677Y308373D01*
X156962Y308373D01*
X156963Y308373D01*
X156953Y307854D01*
X156931Y307335D01*
X156897Y306817D01*
X156850Y306300D01*
X156791Y305785D01*
X156719Y305271D01*
X156635Y304759D01*
X156538Y304249D01*
X156429Y303741D01*
X156308Y303237D01*
X156175Y302735D01*
X156029Y302237D01*
X155872Y301742D01*
X155702Y301252D01*
X155521Y300765D01*
X155328Y300283D01*
X155124Y299806D01*
X154908Y299335D01*
X154681Y298868D01*
X154442Y298407D01*
X154193Y297952D01*
X153932Y297503D01*
X153661Y297061D01*
X153379Y296625D01*
X153087Y296196D01*
X152784Y295774D01*
X152471Y295360D01*
X152149Y294954D01*
X151816Y294555D01*
X151474Y294164D01*
X151123Y293782D01*
X150763Y293409D01*
X150393Y293044D01*
X150015Y292689D01*
X149629Y292342D01*
X149234Y292005D01*
X148831Y291678D01*
X148421Y291361D01*
X148002Y291053D01*
X147577Y290756D01*
X147144Y290469D01*
X146705Y290193D01*
X146259Y289928D01*
X146140Y290136D01*
X146581Y290398D01*
X147015Y290672D01*
X147443Y290955D01*
X147864Y291249D01*
X148277Y291553D01*
X148683Y291867D01*
X149081Y292191D01*
X149472Y292524D01*
X149854Y292866D01*
X150227Y293218D01*
X150593Y293578D01*
X150949Y293947D01*
X151296Y294325D01*
X151634Y294711D01*
X151963Y295105D01*
X152282Y295507D01*
X152591Y295917D01*
X152890Y296334D01*
X153179Y296758D01*
X153458Y297189D01*
X153726Y297626D01*
X153984Y298070D01*
X154230Y298520D01*
X154466Y298975D01*
X154691Y299437D01*
X154904Y299903D01*
X155107Y300375D01*
X155297Y300851D01*
X155476Y301332D01*
X155644Y301817D01*
X155799Y302306D01*
X155943Y302799D01*
X156075Y303295D01*
X156195Y303794D01*
X156303Y304295D01*
X156398Y304800D01*
X156481Y305306D01*
X156552Y305814D01*
X156611Y306324D01*
X156658Y306835D01*
X156692Y307347D01*
X156713Y307860D01*
X156723Y308373D01*
X156483Y308373D01*
X156473Y307865D01*
X156452Y307359D01*
X156418Y306852D01*
X156372Y306347D01*
X156314Y305843D01*
X156244Y305341D01*
X156162Y304840D01*
X156067Y304342D01*
X155961Y303846D01*
X155842Y303353D01*
X155712Y302863D01*
X155570Y302376D01*
X155416Y301892D01*
X155250Y301413D01*
X155073Y300937D01*
X154885Y300467D01*
X154685Y300000D01*
X154474Y299539D01*
X154252Y299083D01*
X154019Y298632D01*
X153775Y298188D01*
X153520Y297749D01*
X153255Y297316D01*
X152979Y296891D01*
X152694Y296471D01*
X152398Y296059D01*
X152092Y295654D01*
X151777Y295257D01*
X151452Y294868D01*
X151118Y294486D01*
X150775Y294112D01*
X150422Y293747D01*
X150061Y293391D01*
X149692Y293043D01*
X149314Y292705D01*
X148928Y292376D01*
X148535Y292056D01*
X148133Y291745D01*
X147725Y291445D01*
X147309Y291154D01*
X146886Y290874D01*
X146457Y290604D01*
X146021Y290344D01*
X145902Y290553D01*
X146333Y290809D01*
X146757Y291076D01*
X147175Y291353D01*
X147586Y291641D01*
X147990Y291938D01*
X148386Y292244D01*
X148776Y292561D01*
X149157Y292886D01*
X149530Y293221D01*
X149895Y293564D01*
X150252Y293917D01*
X150600Y294277D01*
X150940Y294647D01*
X151270Y295024D01*
X151591Y295409D01*
X151903Y295802D01*
X152205Y296202D01*
X152497Y296609D01*
X152780Y297023D01*
X153052Y297444D01*
X153314Y297872D01*
X153566Y298306D01*
X153807Y298745D01*
X154037Y299191D01*
X154257Y299641D01*
X154465Y300097D01*
X154663Y300558D01*
X154849Y301024D01*
X155024Y301493D01*
X155188Y301967D01*
X155340Y302445D01*
X155480Y302926D01*
X155609Y303411D01*
X155726Y303899D01*
X155832Y304389D01*
X155925Y304881D01*
X156007Y305376D01*
X156076Y305873D01*
X156134Y306371D01*
X156179Y306870D01*
X156212Y307370D01*
X156233Y307871D01*
X156243Y308373D01*
X156003Y308373D01*
X155994Y307877D01*
X155973Y307382D01*
X155940Y306888D01*
X155895Y306394D01*
X155838Y305902D01*
X155769Y305411D01*
X155689Y304922D01*
X155596Y304435D01*
X155492Y303951D01*
X155376Y303469D01*
X155249Y302990D01*
X155110Y302515D01*
X154960Y302042D01*
X154798Y301574D01*
X154625Y301110D01*
X154441Y300650D01*
X154246Y300194D01*
X154040Y299744D01*
X153823Y299298D01*
X153595Y298858D01*
X153357Y298424D01*
X153108Y297995D01*
X152849Y297572D01*
X152580Y297156D01*
X152301Y296747D01*
X152012Y296344D01*
X151713Y295949D01*
X151405Y295561D01*
X151088Y295180D01*
X150761Y294807D01*
X150426Y294443D01*
X150082Y294086D01*
X149729Y293738D01*
X149369Y293398D01*
X149000Y293067D01*
X148623Y292746D01*
X148238Y292433D01*
X147846Y292130D01*
X147447Y291836D01*
X147041Y291553D01*
X146628Y291279D01*
X146209Y291015D01*
X145783Y290761D01*
X145664Y290969D01*
X146084Y291220D01*
X146499Y291481D01*
X146907Y291752D01*
X147308Y292032D01*
X147703Y292322D01*
X148090Y292622D01*
X148470Y292931D01*
X148842Y293249D01*
X149207Y293575D01*
X149563Y293911D01*
X149912Y294255D01*
X150252Y294608D01*
X150583Y294968D01*
X150906Y295336D01*
X151219Y295713D01*
X151524Y296096D01*
X151819Y296487D01*
X152104Y296885D01*
X152380Y297289D01*
X152646Y297700D01*
X152902Y298118D01*
X153148Y298541D01*
X153383Y298971D01*
X153608Y299406D01*
X153822Y299846D01*
X154026Y300291D01*
X154219Y300741D01*
X154401Y301196D01*
X154572Y301655D01*
X154732Y302117D01*
X154880Y302584D01*
X155018Y303054D01*
X155144Y303527D01*
X155258Y304003D01*
X155361Y304482D01*
X155452Y304963D01*
X155532Y305446D01*
X155600Y305931D01*
X155656Y306418D01*
X155700Y306905D01*
X155733Y307394D01*
X155754Y307883D01*
X155763Y308373D01*
X155523Y308373D01*
X155514Y307889D01*
X155493Y307406D01*
X155461Y306923D01*
X155417Y306441D01*
X155361Y305960D01*
X155294Y305481D01*
X155216Y305004D01*
X155125Y304529D01*
X155024Y304056D01*
X154911Y303585D01*
X154786Y303118D01*
X154651Y302653D01*
X154504Y302192D01*
X154346Y301735D01*
X154177Y301282D01*
X153997Y300833D01*
X153807Y300388D01*
X153605Y299948D01*
X153393Y299513D01*
X153171Y299084D01*
X152939Y298659D01*
X152696Y298241D01*
X152443Y297828D01*
X152180Y297422D01*
X151908Y297022D01*
X151626Y296629D01*
X151334Y296243D01*
X151033Y295864D01*
X150724Y295493D01*
X150405Y295129D01*
X150078Y294773D01*
X149742Y294424D01*
X149397Y294084D01*
X149045Y293753D01*
X148685Y293430D01*
X148317Y293116D01*
X147942Y292811D01*
X147559Y292515D01*
X147169Y292228D01*
X146773Y291951D01*
X146370Y291683D01*
X145960Y291426D01*
X145545Y291178D01*
X145426Y291386D01*
X145836Y291631D01*
X146241Y291886D01*
X146639Y292150D01*
X147030Y292424D01*
X147415Y292707D01*
X147793Y292999D01*
X148164Y293301D01*
X148528Y293611D01*
X148883Y293930D01*
X149231Y294258D01*
X149571Y294594D01*
X149903Y294938D01*
X150227Y295289D01*
X150541Y295649D01*
X150847Y296016D01*
X151145Y296391D01*
X151432Y296772D01*
X151711Y297160D01*
X151980Y297555D01*
X152240Y297956D01*
X152490Y298364D01*
X152729Y298777D01*
X152959Y299196D01*
X153179Y299621D01*
X153388Y300050D01*
X153587Y300485D01*
X153775Y300924D01*
X153953Y301368D01*
X154120Y301816D01*
X154276Y302267D01*
X154421Y302723D01*
X154555Y303182D01*
X154678Y303643D01*
X154790Y304108D01*
X154890Y304575D01*
X154979Y305045D01*
X155057Y305516D01*
X155123Y305990D01*
X155178Y306464D01*
X155222Y306940D01*
X155253Y307417D01*
X155274Y307895D01*
X155283Y308373D01*
X155043Y308373D01*
X155034Y307901D01*
X155014Y307429D01*
X154982Y306958D01*
X154939Y306488D01*
X154885Y306019D01*
X154819Y305551D01*
X154743Y305086D01*
X154655Y304622D01*
X154555Y304160D01*
X154445Y303702D01*
X154324Y303245D01*
X154191Y302792D01*
X154048Y302342D01*
X153894Y301896D01*
X153729Y301454D01*
X153554Y301016D01*
X153368Y300582D01*
X153171Y300153D01*
X152964Y299728D01*
X152747Y299309D01*
X152520Y298895D01*
X152284Y298487D01*
X152037Y298084D01*
X151780Y297688D01*
X151515Y297298D01*
X151239Y296914D01*
X150955Y296538D01*
X150662Y296168D01*
X150359Y295805D01*
X150048Y295450D01*
X149729Y295103D01*
X149401Y294763D01*
X149065Y294431D01*
X148722Y294108D01*
X148370Y293792D01*
X148011Y293486D01*
X147645Y293188D01*
X147272Y292899D01*
X146892Y292619D01*
X146505Y292349D01*
X146111Y292088D01*
X145712Y291836D01*
X145307Y291595D01*
X145187Y291803D01*
X145588Y292042D01*
X145982Y292290D01*
X146371Y292548D01*
X146753Y292815D01*
X147128Y293091D01*
X147497Y293377D01*
X147859Y293671D01*
X148213Y293974D01*
X148560Y294285D01*
X148899Y294604D01*
X149231Y294932D01*
X149555Y295268D01*
X149870Y295611D01*
X150177Y295962D01*
X150476Y296320D01*
X150765Y296685D01*
X151046Y297057D01*
X151318Y297436D01*
X151581Y297821D01*
X151834Y298212D01*
X152077Y298610D01*
X152311Y299013D01*
X152536Y299422D01*
X152750Y299836D01*
X152954Y300255D01*
X153148Y300679D01*
X153332Y301107D01*
X153505Y301540D01*
X153668Y301977D01*
X153820Y302417D01*
X153961Y302862D01*
X154092Y303309D01*
X154212Y303760D01*
X154321Y304213D01*
X154419Y304669D01*
X154506Y305127D01*
X154582Y305587D01*
X154647Y306048D01*
X154700Y306511D01*
X154743Y306976D01*
X154774Y307441D01*
X154794Y307906D01*
X154803Y308373D01*
D12*
X127626Y324248D02*
X122546Y324248D01*
X143882Y324248D02*
X148454Y324248D01*
M02*
