G04 EAGLE Gerber RS-274X export*
G75*
%MOMM*%
%FSLAX34Y34*%
%LPD*%
%INSoldermask Top*%
%IPPOS*%
%AMOC8*
5,1,8,0,0,1.08239X$1,22.5*%
G01*
%ADD10C,2.032000*%
%ADD11C,2.082800*%
%ADD12C,1.828800*%
%ADD13R,2.003200X2.003200*%

G36*
X136348Y388773D02*
X136348Y388773D01*
X136439Y388772D01*
X137403Y388903D01*
X137451Y388919D01*
X137540Y388938D01*
X138451Y389280D01*
X138494Y389306D01*
X138578Y389345D01*
X139389Y389882D01*
X139425Y389917D01*
X139498Y389973D01*
X140170Y390677D01*
X140198Y390719D01*
X140256Y390790D01*
X140754Y391626D01*
X140755Y391629D01*
X140757Y391631D01*
X140763Y391650D01*
X140772Y391673D01*
X140812Y391755D01*
X141112Y392681D01*
X141119Y392731D01*
X141141Y392820D01*
X141227Y393789D01*
X141223Y393836D01*
X141226Y393911D01*
X141124Y394887D01*
X141110Y394935D01*
X141094Y395025D01*
X140778Y395954D01*
X140754Y395998D01*
X140717Y396083D01*
X140203Y396918D01*
X140169Y396955D01*
X140115Y397030D01*
X139427Y397730D01*
X139386Y397759D01*
X139317Y397819D01*
X138490Y398348D01*
X138444Y398367D01*
X138363Y398411D01*
X137440Y398743D01*
X137390Y398751D01*
X137301Y398776D01*
X136327Y398894D01*
X136277Y398891D01*
X136191Y398895D01*
X135189Y398800D01*
X135140Y398786D01*
X135050Y398770D01*
X134094Y398454D01*
X134049Y398430D01*
X133965Y398395D01*
X133104Y397873D01*
X133066Y397840D01*
X132991Y397787D01*
X132267Y397087D01*
X132238Y397046D01*
X132177Y396977D01*
X131627Y396134D01*
X131607Y396088D01*
X131563Y396007D01*
X131215Y395063D01*
X131206Y395013D01*
X131181Y394925D01*
X131051Y393927D01*
X131053Y393884D01*
X131052Y393758D01*
X131191Y392747D01*
X131207Y392699D01*
X131226Y392609D01*
X131588Y391654D01*
X131614Y391611D01*
X131653Y391527D01*
X132217Y390677D01*
X132252Y390640D01*
X132309Y390568D01*
X133049Y389864D01*
X133091Y389836D01*
X133162Y389778D01*
X134040Y389257D01*
X134087Y389239D01*
X134169Y389198D01*
X135141Y388885D01*
X135191Y388878D01*
X135280Y388857D01*
X136298Y388768D01*
X136348Y388773D01*
G37*
G36*
X136348Y360782D02*
X136348Y360782D01*
X136439Y360781D01*
X137403Y360912D01*
X137451Y360928D01*
X137540Y360947D01*
X138451Y361289D01*
X138494Y361315D01*
X138578Y361354D01*
X139389Y361891D01*
X139425Y361926D01*
X139498Y361982D01*
X140170Y362686D01*
X140198Y362728D01*
X140256Y362799D01*
X140754Y363635D01*
X140755Y363638D01*
X140757Y363640D01*
X140763Y363659D01*
X140772Y363682D01*
X140812Y363764D01*
X141112Y364690D01*
X141119Y364740D01*
X141141Y364829D01*
X141227Y365798D01*
X141223Y365845D01*
X141226Y365920D01*
X141124Y366896D01*
X141110Y366944D01*
X141094Y367034D01*
X140778Y367963D01*
X140754Y368007D01*
X140717Y368092D01*
X140203Y368927D01*
X140169Y368964D01*
X140115Y369039D01*
X139427Y369739D01*
X139386Y369768D01*
X139317Y369828D01*
X138490Y370357D01*
X138444Y370376D01*
X138363Y370420D01*
X137440Y370752D01*
X137390Y370760D01*
X137301Y370785D01*
X136327Y370903D01*
X136277Y370900D01*
X136191Y370904D01*
X135189Y370809D01*
X135140Y370795D01*
X135050Y370779D01*
X134094Y370463D01*
X134049Y370439D01*
X133965Y370404D01*
X133104Y369882D01*
X133066Y369849D01*
X132991Y369796D01*
X132267Y369096D01*
X132238Y369055D01*
X132177Y368986D01*
X131627Y368143D01*
X131607Y368097D01*
X131563Y368016D01*
X131215Y367072D01*
X131206Y367022D01*
X131181Y366934D01*
X131051Y365936D01*
X131053Y365893D01*
X131052Y365767D01*
X131191Y364756D01*
X131207Y364708D01*
X131226Y364618D01*
X131588Y363663D01*
X131614Y363620D01*
X131653Y363536D01*
X132217Y362686D01*
X132252Y362649D01*
X132309Y362577D01*
X133049Y361873D01*
X133091Y361845D01*
X133162Y361787D01*
X134040Y361266D01*
X134087Y361248D01*
X134169Y361207D01*
X135141Y360894D01*
X135191Y360887D01*
X135280Y360866D01*
X136298Y360777D01*
X136348Y360782D01*
G37*
D10*
X129300Y92000D03*
X154700Y92000D03*
X180100Y92000D03*
X180100Y117400D03*
X154700Y117400D03*
X129300Y117400D03*
D11*
X135500Y295800D03*
X135500Y321200D03*
X135700Y255900D03*
X135700Y179700D03*
X135700Y545000D03*
X135700Y468800D03*
D12*
X180200Y545300D03*
X180200Y519900D03*
X180200Y494500D03*
X180200Y469100D03*
X180200Y443700D03*
X180200Y418300D03*
X180200Y392900D03*
X180200Y367500D03*
X180200Y342100D03*
X180200Y316700D03*
X180200Y291300D03*
X180200Y265900D03*
X180200Y240500D03*
X180200Y215100D03*
X256400Y215100D03*
X256400Y240500D03*
X256400Y265900D03*
X256400Y291300D03*
X256400Y316700D03*
X256400Y342100D03*
X256400Y367500D03*
X256400Y392900D03*
X256400Y418300D03*
X256400Y443700D03*
X256400Y469100D03*
X256400Y494500D03*
X256400Y519900D03*
X256400Y545300D03*
D13*
X305000Y425000D03*
X75000Y465000D03*
X215000Y140000D03*
X100000Y195000D03*
X295000Y290000D03*
X47500Y415000D03*
X242500Y120000D03*
X22500Y545000D03*
M02*
