G04 EAGLE Gerber RS-274X export*
G75*
%MOMM*%
%FSLAX34Y34*%
%LPD*%
%INSoldermask Bottom*%
%IPPOS*%
%AMOC8*
5,1,8,0,0,1.08239X$1,22.5*%
G01*
%ADD10C,2.032000*%
%ADD11C,2.082800*%
%ADD12C,1.828800*%
%ADD13R,2.003200X2.003200*%

G36*
X136377Y383693D02*
X136377Y383693D01*
X136449Y383691D01*
X138285Y383896D01*
X138331Y383910D01*
X138406Y383922D01*
X140167Y384482D01*
X140209Y384505D01*
X140281Y384531D01*
X141898Y385424D01*
X141936Y385454D01*
X142001Y385494D01*
X143413Y386685D01*
X143444Y386722D01*
X143500Y386774D01*
X144653Y388218D01*
X144676Y388260D01*
X144720Y388322D01*
X145569Y389963D01*
X145584Y390009D01*
X145615Y390078D01*
X146128Y391853D01*
X146133Y391901D01*
X146151Y391976D01*
X146307Y393816D01*
X146303Y393860D01*
X146307Y393925D01*
X146147Y395756D01*
X146134Y395802D01*
X146124Y395878D01*
X145610Y397642D01*
X145589Y397686D01*
X145564Y397758D01*
X144715Y399388D01*
X144686Y399426D01*
X144647Y399492D01*
X143497Y400925D01*
X143461Y400957D01*
X143410Y401014D01*
X142002Y402195D01*
X141961Y402219D01*
X141900Y402265D01*
X140288Y403149D01*
X140243Y403164D01*
X140174Y403198D01*
X138421Y403750D01*
X138374Y403756D01*
X138300Y403776D01*
X136473Y403976D01*
X136427Y403972D01*
X136358Y403978D01*
X134682Y403855D01*
X134639Y403844D01*
X134573Y403838D01*
X132943Y403427D01*
X132903Y403408D01*
X132839Y403390D01*
X131306Y402702D01*
X131269Y402677D01*
X131209Y402648D01*
X129819Y401704D01*
X129787Y401673D01*
X129733Y401635D01*
X128527Y400464D01*
X128501Y400428D01*
X128455Y400380D01*
X127471Y399018D01*
X127452Y398977D01*
X127415Y398923D01*
X126682Y397410D01*
X126670Y397367D01*
X126643Y397307D01*
X126185Y395690D01*
X126180Y395645D01*
X126164Y395581D01*
X125993Y393909D01*
X125997Y393861D01*
X125993Y393782D01*
X126159Y392110D01*
X126171Y392067D01*
X126180Y392002D01*
X126634Y390384D01*
X126653Y390343D01*
X126673Y390280D01*
X127401Y388766D01*
X127427Y388730D01*
X127457Y388671D01*
X128438Y387306D01*
X128470Y387275D01*
X128510Y387222D01*
X129712Y386048D01*
X129749Y386023D01*
X129797Y385978D01*
X131185Y385031D01*
X131226Y385013D01*
X131282Y384977D01*
X132813Y384285D01*
X132856Y384274D01*
X132917Y384248D01*
X134546Y383833D01*
X134590Y383830D01*
X134655Y383815D01*
X136330Y383689D01*
X136377Y383693D01*
G37*
G36*
X136377Y355702D02*
X136377Y355702D01*
X136449Y355700D01*
X138285Y355905D01*
X138331Y355919D01*
X138406Y355931D01*
X140167Y356491D01*
X140209Y356514D01*
X140281Y356540D01*
X141898Y357433D01*
X141936Y357463D01*
X142001Y357503D01*
X143413Y358694D01*
X143444Y358731D01*
X143500Y358783D01*
X144653Y360227D01*
X144676Y360269D01*
X144720Y360331D01*
X145569Y361972D01*
X145584Y362018D01*
X145615Y362087D01*
X146128Y363862D01*
X146133Y363910D01*
X146151Y363985D01*
X146307Y365825D01*
X146303Y365869D01*
X146307Y365934D01*
X146147Y367765D01*
X146134Y367811D01*
X146124Y367887D01*
X145610Y369651D01*
X145589Y369695D01*
X145564Y369767D01*
X144715Y371397D01*
X144686Y371435D01*
X144647Y371501D01*
X143497Y372934D01*
X143461Y372966D01*
X143410Y373023D01*
X142002Y374204D01*
X141961Y374228D01*
X141900Y374274D01*
X140288Y375158D01*
X140243Y375173D01*
X140174Y375207D01*
X138421Y375759D01*
X138374Y375765D01*
X138300Y375785D01*
X136473Y375985D01*
X136427Y375981D01*
X136358Y375987D01*
X134682Y375864D01*
X134639Y375853D01*
X134573Y375847D01*
X132943Y375436D01*
X132903Y375417D01*
X132839Y375399D01*
X131306Y374711D01*
X131269Y374686D01*
X131209Y374657D01*
X129819Y373713D01*
X129787Y373682D01*
X129733Y373644D01*
X128527Y372473D01*
X128501Y372437D01*
X128455Y372389D01*
X127471Y371027D01*
X127452Y370986D01*
X127415Y370932D01*
X126682Y369419D01*
X126670Y369376D01*
X126643Y369316D01*
X126185Y367699D01*
X126180Y367654D01*
X126164Y367590D01*
X125993Y365918D01*
X125997Y365870D01*
X125993Y365791D01*
X126159Y364119D01*
X126171Y364076D01*
X126180Y364011D01*
X126634Y362393D01*
X126653Y362352D01*
X126673Y362289D01*
X127401Y360775D01*
X127427Y360739D01*
X127457Y360680D01*
X128438Y359315D01*
X128470Y359284D01*
X128510Y359231D01*
X129712Y358057D01*
X129749Y358032D01*
X129797Y357987D01*
X131185Y357040D01*
X131226Y357022D01*
X131282Y356986D01*
X132813Y356294D01*
X132856Y356283D01*
X132917Y356257D01*
X134546Y355842D01*
X134590Y355839D01*
X134655Y355824D01*
X136330Y355698D01*
X136377Y355702D01*
G37*
D10*
X129300Y92000D03*
X154700Y92000D03*
X180100Y92000D03*
X180100Y117400D03*
X154700Y117400D03*
X129300Y117400D03*
D11*
X135500Y295800D03*
X135500Y321200D03*
X135700Y255900D03*
X135700Y179700D03*
X135700Y545000D03*
X135700Y468800D03*
D12*
X180200Y545300D03*
X180200Y519900D03*
X180200Y494500D03*
X180200Y469100D03*
X180200Y443700D03*
X180200Y418300D03*
X180200Y392900D03*
X180200Y367500D03*
X180200Y342100D03*
X180200Y316700D03*
X180200Y291300D03*
X180200Y265900D03*
X180200Y240500D03*
X180200Y215100D03*
X256400Y215100D03*
X256400Y240500D03*
X256400Y265900D03*
X256400Y291300D03*
X256400Y316700D03*
X256400Y342100D03*
X256400Y367500D03*
X256400Y392900D03*
X256400Y418300D03*
X256400Y443700D03*
X256400Y469100D03*
X256400Y494500D03*
X256400Y519900D03*
X256400Y545300D03*
D13*
X305000Y425000D03*
X75000Y465000D03*
X215000Y140000D03*
X100000Y195000D03*
X295000Y290000D03*
X47500Y415000D03*
X242500Y120000D03*
X22500Y545000D03*
M02*
