<?xml version="1.0" encoding="UTF-8" standalone="no"?>
<svg
   xmlns:dc="http://purl.org/dc/elements/1.1/"
   xmlns:cc="http://creativecommons.org/ns#"
   xmlns:rdf="http://www.w3.org/1999/02/22-rdf-syntax-ns#"
   xmlns:svg="http://www.w3.org/2000/svg"
   xmlns="http://www.w3.org/2000/svg"
   xmlns:sodipodi="http://sodipodi.sourceforge.net/DTD/sodipodi-0.dtd"
   xmlns:inkscape="http://www.inkscape.org/namespaces/inkscape"
   width="112pt"
   height="198pt"
   viewBox="0 0 112 198"
   version="1.1"
   id="svg139"
   sodipodi:docname="topLayer_v2.svg"
   inkscape:version="1.0.1 (3bc2e813f5, 2020-09-07)">
  <metadata
     id="metadata145">
    <rdf:RDF>
      <cc:Work
         rdf:about="">
        <dc:format>image/svg+xml</dc:format>
        <dc:type
           rdf:resource="http://purl.org/dc/dcmitype/StillImage" />
      </cc:Work>
    </rdf:RDF>
  </metadata>
  <defs
     id="defs143">
    <filter
       style="color-interpolation-filters:sRGB;"
       inkscape:label="Edge Detect"
       id="filter972">
      <feConvolveMatrix
         in="SourceGraphic"
         kernelMatrix="0 1 0 1 -4 1 0 1 0"
         order="3 3"
         bias="1"
         divisor="0.666667"
         targetX="1"
         targetY="1"
         preserveAlpha="true"
         result="convolve"
         id="feConvolveMatrix970" />
    </filter>
  </defs>
  <sodipodi:namedview
     pagecolor="#ffffff"
     bordercolor="#666666"
     borderopacity="1"
     objecttolerance="10"
     gridtolerance="10"
     guidetolerance="10"
     inkscape:pageopacity="0"
     inkscape:pageshadow="2"
     inkscape:window-width="1785"
     inkscape:window-height="960"
     id="namedview141"
     showgrid="false"
     inkscape:zoom="3.3333333"
     inkscape:cx="74.666667"
     inkscape:cy="132"
     inkscape:window-x="0"
     inkscape:window-y="0"
     inkscape:window-maximized="0"
     inkscape:current-layer="svg139" />
  <g
     id="surface4196"
     style="filter:url(#filter972)"
     inkscape:export-xdpi="400"
     inkscape:export-ydpi="400">
    <path
       style="fill:#7373de;fill-opacity:1;fill-rule:evenodd;stroke:none"
       d="m 46.605469,85.257813 c 0,-3.839844 -5.761719,-3.839844 -5.761719,0 0,3.839843 5.761719,3.839843 5.761719,0"
       id="path2" />
    <path
       style="fill:#7373de;fill-opacity:1;fill-rule:evenodd;stroke:none"
       d="m 46.605469,77.335938 c 0,-3.839844 -5.761719,-3.839844 -5.761719,0 0,3.84375 5.761719,3.84375 5.761719,0"
       id="path4" />
    <path
       style="fill:#7373de;fill-opacity:1;fill-rule:evenodd;stroke:none"
       d="m 44.359375,162.90625 c 0,-3.45313 -5.183594,-3.45313 -5.183594,0 0,3.45703 5.183594,3.45703 5.183594,0"
       id="path6" />
    <path
       style="fill:#7373de;fill-opacity:1;fill-rule:evenodd;stroke:none"
       d="m 51.558594,162.90625 c 0,-3.45313 -5.183594,-3.45313 -5.183594,0 0,3.45703 5.183594,3.45703 5.183594,0"
       id="path8" />
    <path
       style="fill:#7373de;fill-opacity:1;fill-rule:evenodd;stroke:none"
       d="m 58.761719,162.90625 c 0,-3.45313 -5.183594,-3.45313 -5.183594,0 0,3.45703 5.183594,3.45703 5.183594,0"
       id="path10" />
    <path
       style="fill:#7373de;fill-opacity:1;fill-rule:evenodd;stroke:none"
       d="m 58.761719,155.70703 c 0,-3.45703 -5.183594,-3.45703 -5.183594,0 0,3.45703 5.183594,3.45703 5.183594,0"
       id="path12" />
    <path
       style="fill:#7373de;fill-opacity:1;fill-rule:evenodd;stroke:none"
       d="m 51.558594,155.70703 c 0,-3.45703 -5.183594,-3.45703 -5.183594,0 0,3.45703 5.183594,3.45703 5.183594,0"
       id="path14" />
    <path
       style="fill:#7373de;fill-opacity:1;fill-rule:evenodd;stroke:none"
       d="m 44.359375,155.70703 c 0,-3.45703 -5.183594,-3.45703 -5.183594,0 0,3.45703 5.183594,3.45703 5.183594,0"
       id="path16" />
    <path
       style="fill:#7373de;fill-opacity:1;fill-rule:evenodd;stroke:none"
       d="m 46.191406,105.13672 c 0,-3.55078 -5.328125,-3.55078 -5.328125,0 0,3.55078 5.328125,3.55078 5.328125,0"
       id="path18" />
    <path
       style="fill:#7373de;fill-opacity:1;fill-rule:evenodd;stroke:none"
       d="m 46.191406,97.9375 c 0,-3.550781 -5.328125,-3.550781 -5.328125,0 0,3.55078 5.328125,3.55078 5.328125,0"
       id="path20" />
    <path
       style="fill:#7373de;fill-opacity:1;fill-rule:evenodd;stroke:none"
       d="m 46.246094,116.44922 c 0,-3.55469 -5.328125,-3.55469 -5.328125,0 0,3.55078 5.328125,3.55078 5.328125,0"
       id="path22" />
    <path
       style="fill:#7373de;fill-opacity:1;fill-rule:evenodd;stroke:none"
       d="m 46.246094,138.04687 c 0,-3.55078 -5.328125,-3.55078 -5.328125,0 0,3.55079 5.328125,3.55079 5.328125,0"
       id="path24" />
    <path
       style="fill:#7373de;fill-opacity:1;fill-rule:evenodd;stroke:none"
       d="m 46.246094,34.496094 c 0,-3.550781 -5.328125,-3.550781 -5.328125,0 0,3.554687 5.328125,3.554687 5.328125,0"
       id="path26" />
    <path
       style="fill:#7373de;fill-opacity:1;fill-rule:evenodd;stroke:none"
       d="m 46.246094,56.097656 c 0,-3.550781 -5.328125,-3.550781 -5.328125,0 0,3.550782 5.328125,3.550782 5.328125,0"
       id="path28" />
    <path
       style="fill:#7373de;fill-opacity:1;fill-rule:evenodd;stroke:none"
       d="m 58.5,34.414063 c 0,-3.074219 -4.605469,-3.074219 -4.605469,0 0,3.070312 4.605469,3.070312 4.605469,0"
       id="path30" />
    <path
       style="fill:#7373de;fill-opacity:1;fill-rule:evenodd;stroke:none"
       d="m 58.5,41.613281 c 0,-3.074218 -4.605469,-3.074218 -4.605469,0 0,3.070313 4.605469,3.070313 4.605469,0"
       id="path32" />
    <path
       style="fill:#7373de;fill-opacity:1;fill-rule:evenodd;stroke:none"
       d="m 58.5,48.8125 c 0,-3.070312 -4.605469,-3.070312 -4.605469,0 0,3.070313 4.605469,3.070313 4.605469,0"
       id="path34" />
    <path
       style="fill:#7373de;fill-opacity:1;fill-rule:evenodd;stroke:none"
       d="m 58.5,56.011719 c 0,-3.070313 -4.605469,-3.070313 -4.605469,0 0,3.074219 4.605469,3.074219 4.605469,0"
       id="path36" />
    <path
       style="fill:#7373de;fill-opacity:1;fill-rule:evenodd;stroke:none"
       d="m 58.5,63.210938 c 0,-3.070313 -4.605469,-3.070313 -4.605469,0 0,3.074218 4.605469,3.074218 4.605469,0"
       id="path38" />
    <path
       style="fill:#7373de;fill-opacity:1;fill-rule:evenodd;stroke:none"
       d="m 58.5,70.414063 c 0,-3.074219 -4.605469,-3.074219 -4.605469,0 0,3.070312 4.605469,3.070312 4.605469,0"
       id="path40" />
    <path
       style="fill:#7373de;fill-opacity:1;fill-rule:evenodd;stroke:none"
       d="m 58.5,77.613281 c 0,-3.074218 -4.605469,-3.074218 -4.605469,0 0,3.070313 4.605469,3.070313 4.605469,0"
       id="path42" />
    <path
       style="fill:#7373de;fill-opacity:1;fill-rule:evenodd;stroke:none"
       d="m 58.5,84.8125 c 0,-3.070312 -4.605469,-3.070312 -4.605469,0 0,3.070313 4.605469,3.070313 4.605469,0"
       id="path44" />
    <path
       style="fill:#7373de;fill-opacity:1;fill-rule:evenodd;stroke:none"
       d="m 58.5,92.011719 c 0,-3.070313 -4.605469,-3.070313 -4.605469,0 0,3.074219 4.605469,3.074219 4.605469,0"
       id="path46" />
    <path
       style="fill:#7373de;fill-opacity:1;fill-rule:evenodd;stroke:none"
       d="m 58.5,99.210938 c 0,-3.070313 -4.605469,-3.070313 -4.605469,0 0,3.074222 4.605469,3.074222 4.605469,0"
       id="path48" />
    <path
       style="fill:#7373de;fill-opacity:1;fill-rule:evenodd;stroke:none"
       d="m 58.5,106.41406 c 0,-3.07422 -4.605469,-3.07422 -4.605469,0 0,3.07032 4.605469,3.07032 4.605469,0"
       id="path50" />
    <path
       style="fill:#7373de;fill-opacity:1;fill-rule:evenodd;stroke:none"
       d="m 58.5,113.61328 c 0,-3.07422 -4.605469,-3.07422 -4.605469,0 0,3.07031 4.605469,3.07031 4.605469,0"
       id="path52" />
    <path
       style="fill:#7373de;fill-opacity:1;fill-rule:evenodd;stroke:none"
       d="m 58.5,120.8125 c 0,-3.07031 -4.605469,-3.07031 -4.605469,0 0,3.07031 4.605469,3.07031 4.605469,0"
       id="path54" />
    <path
       style="fill:#7373de;fill-opacity:1;fill-rule:evenodd;stroke:none"
       d="m 58.5,128.01172 c 0,-3.07031 -4.605469,-3.07031 -4.605469,0 0,3.07422 4.605469,3.07422 4.605469,0"
       id="path56" />
    <path
       style="fill:#7373de;fill-opacity:1;fill-rule:evenodd;stroke:none"
       d="m 80.101563,128.01172 c 0,-3.07031 -4.609375,-3.07031 -4.609375,0 0,3.07422 4.609375,3.07422 4.609375,0"
       id="path58" />
    <path
       style="fill:#7373de;fill-opacity:1;fill-rule:evenodd;stroke:none"
       d="m 80.101563,120.8125 c 0,-3.07031 -4.609375,-3.07031 -4.609375,0 0,3.07031 4.609375,3.07031 4.609375,0"
       id="path60" />
    <path
       style="fill:#7373de;fill-opacity:1;fill-rule:evenodd;stroke:none"
       d="m 80.101563,113.61328 c 0,-3.07422 -4.609375,-3.07422 -4.609375,0 0,3.07031 4.609375,3.07031 4.609375,0"
       id="path62" />
    <path
       style="fill:#7373de;fill-opacity:1;fill-rule:evenodd;stroke:none"
       d="m 80.101563,106.41406 c 0,-3.07422 -4.609375,-3.07422 -4.609375,0 0,3.07032 4.609375,3.07032 4.609375,0"
       id="path64" />
    <path
       style="fill:#7373de;fill-opacity:1;fill-rule:evenodd;stroke:none"
       d="m 80.101563,99.210938 c 0,-3.070313 -4.609375,-3.070313 -4.609375,0 0,3.074222 4.609375,3.074222 4.609375,0"
       id="path66" />
    <path
       style="fill:#7373de;fill-opacity:1;fill-rule:evenodd;stroke:none"
       d="m 80.101563,92.011719 c 0,-3.070313 -4.609375,-3.070313 -4.609375,0 0,3.074219 4.609375,3.074219 4.609375,0"
       id="path68" />
    <path
       style="fill:#7373de;fill-opacity:1;fill-rule:evenodd;stroke:none"
       d="m 80.101563,84.8125 c 0,-3.070312 -4.609375,-3.070312 -4.609375,0 0,3.070313 4.609375,3.070313 4.609375,0"
       id="path70" />
    <path
       style="fill:#7373de;fill-opacity:1;fill-rule:evenodd;stroke:none"
       d="m 80.101563,77.613281 c 0,-3.074218 -4.609375,-3.074218 -4.609375,0 0,3.070313 4.609375,3.070313 4.609375,0"
       id="path72" />
    <path
       style="fill:#7373de;fill-opacity:1;fill-rule:evenodd;stroke:none"
       d="m 80.101563,70.414063 c 0,-3.074219 -4.609375,-3.074219 -4.609375,0 0,3.070312 4.609375,3.070312 4.609375,0"
       id="path74" />
    <path
       style="fill:#7373de;fill-opacity:1;fill-rule:evenodd;stroke:none"
       d="m 80.101563,63.210938 c 0,-3.070313 -4.609375,-3.070313 -4.609375,0 0,3.074218 4.609375,3.074218 4.609375,0"
       id="path76" />
    <path
       style="fill:#7373de;fill-opacity:1;fill-rule:evenodd;stroke:none"
       d="m 80.101563,56.011719 c 0,-3.070313 -4.609375,-3.070313 -4.609375,0 0,3.074219 4.609375,3.074219 4.609375,0"
       id="path78" />
    <path
       style="fill:#7373de;fill-opacity:1;fill-rule:evenodd;stroke:none"
       d="m 80.101563,48.8125 c 0,-3.070312 -4.609375,-3.070312 -4.609375,0 0,3.070313 4.609375,3.070313 4.609375,0"
       id="path80" />
    <path
       style="fill:#7373de;fill-opacity:1;fill-rule:evenodd;stroke:none"
       d="m 80.101563,41.613281 c 0,-3.074218 -4.609375,-3.074218 -4.609375,0 0,3.070313 4.609375,3.070313 4.609375,0"
       id="path82" />
    <path
       style="fill:#7373de;fill-opacity:1;fill-rule:evenodd;stroke:none"
       d="m 80.101563,34.414063 c 0,-3.074219 -4.609375,-3.074219 -4.609375,0 0,3.070312 4.609375,3.070312 4.609375,0"
       id="path84" />
    <path
       style="fill:none;stroke:#7373de;stroke-width:0.0393701;stroke-linecap:round;stroke-linejoin:miter;stroke-miterlimit:10;stroke-opacity:1"
       d="M 1.200803,2.32283 H 0.295258"
       transform="matrix(72,0,0,-72,5.116394,188.98597)"
       id="path86" />
    <path
       style="fill:none;stroke:#7373de;stroke-width:0.0393701;stroke-linecap:round;stroke-linejoin:miter;stroke-miterlimit:10;stroke-opacity:1"
       d="M 1.200803,2.32283 V 1.673253"
       transform="matrix(72,0,0,-72,5.116394,188.98597)"
       id="path88" />
    <path
       style="fill:#7373de;fill-opacity:1;fill-rule:evenodd;stroke:none"
       d="M 89.023438,71.066406 H 94.125 v -5.101562 h -5.101562 z"
       id="path90" />
    <path
       style="fill:#7373de;fill-opacity:1;fill-rule:evenodd;stroke:none"
       d="m 23.824219,59.726563 h 5.101562 V 54.625 h -5.101562 z"
       id="path92" />
    <path
       style="fill:none;stroke:#7373de;stroke-width:0.0393701;stroke-linecap:round;stroke-linejoin:miter;stroke-miterlimit:10;stroke-opacity:1"
       d="M 0.295258,1.830697 V 2.32283"
       transform="matrix(72,0,0,-72,5.116394,188.98597)"
       id="path94" />
    <path
       style="fill:#7373de;fill-opacity:1;fill-rule:evenodd;stroke:none"
       d="m 63.511719,151.85156 h 5.101562 V 146.75 h -5.101562 z"
       id="path96" />
    <path
       style="fill:none;stroke:#7373de;stroke-width:0.0393701;stroke-linecap:round;stroke-linejoin:miter;stroke-miterlimit:10;stroke-opacity:1"
       d="M 0.846474,0.551183 V 0.570877"
       transform="matrix(72,0,0,-72,5.116394,188.98597)"
       id="path98" />
    <path
       style="fill:none;stroke:#7373de;stroke-width:0.0393701;stroke-linecap:round;stroke-linejoin:miter;stroke-miterlimit:10;stroke-opacity:1"
       d="m 0.846474,0.570877 h -0.4528"
       transform="matrix(72,0,0,-72,5.116394,188.98597)"
       id="path100" />
    <path
       style="fill:none;stroke:#7373de;stroke-width:0.0393701;stroke-linecap:round;stroke-linejoin:miter;stroke-miterlimit:10;stroke-opacity:1"
       d="M 0.393674,0.570877 V 0.767709"
       transform="matrix(72,0,0,-72,5.116394,188.98597)"
       id="path102" />
    <path
       style="fill:#7373de;fill-opacity:1;fill-rule:evenodd;stroke:none"
       d="m 30.910156,136.26172 h 5.101563 v -5.10156 h -5.101563 z"
       id="path104" />
    <path
       style="fill:none;stroke:#7373de;stroke-width:0.0393701;stroke-linecap:round;stroke-linejoin:miter;stroke-miterlimit:10;stroke-opacity:1"
       d="m 0.187023,2.421246 h 1.14171"
       transform="matrix(72,0,0,-72,5.116394,188.98597)"
       id="path106" />
    <path
       style="fill:#7373de;fill-opacity:1;fill-rule:evenodd;stroke:none"
       d="m 86.1875,109.33203 h 5.101563 v -5.10156 H 86.1875 Z"
       id="path108" />
    <path
       style="fill:none;stroke:#7373de;stroke-width:0.0393701;stroke-linecap:round;stroke-linejoin:miter;stroke-miterlimit:10;stroke-opacity:1"
       d="M 1.328733,1.141732 V 2.421246"
       transform="matrix(72,0,0,-72,5.116394,188.98597)"
       id="path110" />
    <path
       style="fill:none;stroke:#7373de;stroke-width:0.0393701;stroke-linecap:round;stroke-linejoin:miter;stroke-miterlimit:10;stroke-opacity:1"
       d="M 1.328733,1.141732 H 1.161415"
       transform="matrix(72,0,0,-72,5.116394,188.98597)"
       id="path112" />
    <path
       style="fill:#7373de;fill-opacity:1;fill-rule:evenodd;stroke:none"
       d="m 16.03125,73.898438 h 5.101563 V 68.796875 H 16.03125 Z"
       id="path114" />
    <path
       style="fill:none;stroke:#7373de;stroke-width:0.0393701;stroke-linecap:round;stroke-linejoin:miter;stroke-miterlimit:10;stroke-opacity:1"
       d="M 0.187023,1.633865 V 2.421246"
       transform="matrix(72,0,0,-72,5.116394,188.98597)"
       id="path116" />
    <path
       style="fill:#7373de;fill-opacity:1;fill-rule:evenodd;stroke:none"
       d="m 71.304688,157.51953 h 5.101562 v -5.10156 h -5.101562 z"
       id="path118" />
    <path
       style="fill:none;stroke:#7373de;stroke-width:0.0393701;stroke-linecap:round;stroke-linejoin:miter;stroke-miterlimit:10;stroke-opacity:1"
       d="M 0.954709,0.472461 H 1.171235"
       transform="matrix(72,0,0,-72,5.116394,188.98597)"
       id="path120" />
    <path
       style="fill:none;stroke:#7373de;stroke-width:0.0393701;stroke-linecap:round;stroke-linejoin:miter;stroke-miterlimit:10;stroke-opacity:1"
       d="M 1.171235,0.472461 V 0.0787439"
       transform="matrix(72,0,0,-72,5.116394,188.98597)"
       id="path122" />
    <path
       style="fill:none;stroke:#7373de;stroke-width:0.0393701;stroke-linecap:round;stroke-linejoin:miter;stroke-miterlimit:10;stroke-opacity:1"
       d="M 1.171235,0.0787439 H 0.0886069"
       transform="matrix(72,0,0,-72,5.116394,188.98597)"
       id="path124" />
    <path
       style="fill:none;stroke:#7373de;stroke-width:0.0393701;stroke-linecap:round;stroke-linejoin:miter;stroke-miterlimit:10;stroke-opacity:1"
       d="M 0.0886069,0.0787439 V 2.145693"
       transform="matrix(72,0,0,-72,5.116394,188.98597)"
       id="path126" />
    <path
       style="fill:#7373de;fill-opacity:1;fill-rule:evenodd;stroke:none"
       d="m 8.941406,37.050781 h 5.101563 V 31.949219 H 8.941406 Z"
       id="path128" />
    <path
       style="fill:none;stroke:#7373de;stroke-width:0.000354331;stroke-linecap:round;stroke-linejoin:miter;stroke-miterlimit:10;stroke-opacity:1"
       d="M 1.10251e-5,2.2134e-5 H 1.417329"
       transform="matrix(72,0,0,-72,5.116394,188.98597)"
       id="path130" />
    <path
       style="fill:none;stroke:#7373de;stroke-width:0.000354331;stroke-linecap:round;stroke-linejoin:miter;stroke-miterlimit:10;stroke-opacity:1"
       d="M 1.10251e-5,2.2134e-5 V 2.500022"
       transform="matrix(72,0,0,-72,5.116394,188.98597)"
       id="path132" />
    <path
       style="fill:none;stroke:#7373de;stroke-width:0.000354331;stroke-linecap:round;stroke-linejoin:miter;stroke-miterlimit:10;stroke-opacity:1"
       d="M 1.10251e-5,2.500022 H 1.417329"
       transform="matrix(72,0,0,-72,5.116394,188.98597)"
       id="path134" />
    <path
       style="fill:none;stroke:#7373de;stroke-width:0.000354331;stroke-linecap:round;stroke-linejoin:miter;stroke-miterlimit:10;stroke-opacity:1"
       d="M 1.417329,2.500022 V 2.2134e-5"
       transform="matrix(72,0,0,-72,5.116394,188.98597)"
       id="path136" />
  </g>
</svg>
