G04 EAGLE Gerber RS-274X export*
G75*
%MOMM*%
%FSLAX34Y34*%
%LPD*%
%INBottom Copper*%
%IPPOS*%
%AMOC8*
5,1,8,0,0,1.08239X$1,22.5*%
G01*
%ADD10C,2.032000*%
%ADD11C,1.828800*%
%ADD12C,1.879600*%
%ADD13C,1.625600*%
%ADD14R,1.800000X1.800000*%
%ADD15C,1.000000*%
%ADD16C,0.009000*%

G36*
X360043Y-9D02*
X360043Y-9D01*
X360039Y-4D01*
X360044Y0D01*
X360044Y635000D01*
X360009Y635043D01*
X360004Y635039D01*
X360000Y635044D01*
X0Y635044D01*
X-43Y635009D01*
X-39Y635004D01*
X-44Y635000D01*
X-44Y0D01*
X-9Y-43D01*
X-4Y-39D01*
X0Y-44D01*
X360000Y-44D01*
X360043Y-9D01*
G37*
%LPC*%
G36*
X127077Y106223D02*
X127077Y106223D01*
X122969Y107925D01*
X120539Y110354D01*
X120518Y110356D01*
X120516Y110360D01*
X120514Y110360D01*
X120508Y110367D01*
X71101Y110367D01*
X68516Y111438D01*
X66538Y113416D01*
X65467Y116001D01*
X65467Y395269D01*
X66538Y397854D01*
X68516Y399832D01*
X71101Y400903D01*
X125971Y400903D01*
X125989Y400917D01*
X126003Y400916D01*
X128654Y403567D01*
X128656Y403587D01*
X128666Y403595D01*
X128665Y403597D01*
X128667Y403599D01*
X128667Y457923D01*
X128632Y457966D01*
X128627Y457962D01*
X128623Y457967D01*
X86077Y457967D01*
X86034Y457932D01*
X86038Y457927D01*
X86033Y457923D01*
X86033Y455158D01*
X84842Y453967D01*
X65158Y453967D01*
X63967Y455158D01*
X63967Y474842D01*
X65158Y476033D01*
X84842Y476033D01*
X86033Y474842D01*
X86033Y472077D01*
X86068Y472034D01*
X86073Y472038D01*
X86077Y472033D01*
X124637Y472033D01*
X124666Y472056D01*
X124678Y472060D01*
X126010Y475275D01*
X129225Y478490D01*
X133426Y480231D01*
X137974Y480231D01*
X142175Y478490D01*
X145390Y475275D01*
X147131Y471074D01*
X147131Y466526D01*
X145390Y462325D01*
X142746Y459680D01*
X142743Y459658D01*
X142733Y459649D01*
X142733Y404391D01*
X142756Y404362D01*
X142760Y404350D01*
X143107Y404206D01*
X146397Y400916D01*
X146420Y400913D01*
X146426Y400905D01*
X146427Y400905D01*
X146429Y400903D01*
X173815Y400903D01*
X173832Y400917D01*
X173846Y400916D01*
X174444Y401514D01*
X178179Y403061D01*
X182221Y403061D01*
X185956Y401514D01*
X188814Y398656D01*
X190361Y394921D01*
X190361Y390879D01*
X188814Y387144D01*
X185956Y384286D01*
X182221Y382739D01*
X178179Y382739D01*
X174444Y384286D01*
X171906Y386824D01*
X171884Y386826D01*
X171879Y386834D01*
X171878Y386834D01*
X171875Y386837D01*
X146429Y386837D01*
X146411Y386823D01*
X146397Y386824D01*
X143107Y383534D01*
X138625Y381677D01*
X133775Y381677D01*
X129293Y383534D01*
X126003Y386824D01*
X125981Y386826D01*
X125975Y386834D01*
X125974Y386834D01*
X125971Y386837D01*
X79577Y386837D01*
X79534Y386802D01*
X79535Y386800D01*
X79534Y386798D01*
X79536Y386795D01*
X79533Y386793D01*
X79533Y124477D01*
X79568Y124434D01*
X79573Y124438D01*
X79577Y124433D01*
X120508Y124433D01*
X120526Y124447D01*
X120539Y124446D01*
X122969Y126875D01*
X127077Y128577D01*
X131523Y128577D01*
X135631Y126875D01*
X138775Y123731D01*
X140477Y119623D01*
X140477Y115177D01*
X138775Y111069D01*
X135631Y107925D01*
X131523Y106223D01*
X127077Y106223D01*
G37*
%LPD*%
%LPC*%
G36*
X153301Y52967D02*
X153301Y52967D01*
X150716Y54038D01*
X148738Y56016D01*
X147667Y58601D01*
X147667Y83208D01*
X147653Y83226D01*
X147654Y83239D01*
X145225Y85669D01*
X143523Y89777D01*
X143523Y94223D01*
X145225Y98331D01*
X148369Y101475D01*
X152477Y103177D01*
X156923Y103177D01*
X161031Y101475D01*
X164175Y98331D01*
X165877Y94223D01*
X165877Y89777D01*
X164175Y85669D01*
X161746Y83239D01*
X161743Y83217D01*
X161733Y83208D01*
X161733Y67077D01*
X161768Y67034D01*
X161773Y67038D01*
X161777Y67033D01*
X320423Y67033D01*
X320466Y67068D01*
X320463Y67072D01*
X320466Y67074D01*
X320465Y67075D01*
X320467Y67077D01*
X320467Y310423D01*
X320432Y310466D01*
X320427Y310462D01*
X320423Y310467D01*
X264555Y310467D01*
X264538Y310453D01*
X264524Y310454D01*
X262156Y308086D01*
X258421Y306539D01*
X254379Y306539D01*
X250644Y308086D01*
X247786Y310944D01*
X246239Y314679D01*
X246239Y318721D01*
X247786Y322456D01*
X250644Y325314D01*
X254379Y326861D01*
X258421Y326861D01*
X262156Y325314D01*
X262924Y324546D01*
X262946Y324543D01*
X262955Y324533D01*
X328899Y324533D01*
X331484Y323462D01*
X333462Y321484D01*
X334533Y318899D01*
X334533Y58601D01*
X333462Y56016D01*
X331484Y54038D01*
X328899Y52967D01*
X153301Y52967D01*
G37*
%LPD*%
%LPC*%
G36*
X90158Y183967D02*
X90158Y183967D01*
X88967Y185158D01*
X88967Y204842D01*
X90158Y206033D01*
X92923Y206033D01*
X92966Y206068D01*
X92962Y206073D01*
X92967Y206077D01*
X92967Y366399D01*
X94038Y368984D01*
X96016Y370962D01*
X98601Y372033D01*
X125501Y372033D01*
X125530Y372056D01*
X125542Y372060D01*
X125864Y372837D01*
X129293Y376266D01*
X133775Y378123D01*
X138625Y378123D01*
X143107Y376266D01*
X146397Y372976D01*
X146420Y372973D01*
X146429Y372963D01*
X171435Y372963D01*
X171464Y372986D01*
X171476Y372990D01*
X171586Y373256D01*
X174444Y376114D01*
X178179Y377661D01*
X182221Y377661D01*
X185956Y376114D01*
X187524Y374546D01*
X187546Y374543D01*
X187555Y374533D01*
X210423Y374533D01*
X210466Y374568D01*
X210462Y374573D01*
X210467Y374577D01*
X210467Y394299D01*
X211538Y396884D01*
X213516Y398862D01*
X216101Y399933D01*
X249045Y399933D01*
X249062Y399947D01*
X249076Y399946D01*
X250644Y401514D01*
X254379Y403061D01*
X258421Y403061D01*
X262156Y401514D01*
X265014Y398656D01*
X266561Y394921D01*
X266561Y390879D01*
X265014Y387144D01*
X262156Y384286D01*
X258421Y382739D01*
X254379Y382739D01*
X250644Y384286D01*
X249076Y385854D01*
X249055Y385856D01*
X249052Y385860D01*
X249051Y385860D01*
X249045Y385867D01*
X224577Y385867D01*
X224534Y385832D01*
X224537Y385827D01*
X224534Y385825D01*
X224534Y385824D01*
X224533Y385823D01*
X224533Y366101D01*
X223462Y363516D01*
X221484Y361538D01*
X218899Y360467D01*
X187555Y360467D01*
X187537Y360453D01*
X187524Y360454D01*
X185956Y358886D01*
X182221Y357339D01*
X178179Y357339D01*
X174436Y358890D01*
X174426Y358886D01*
X174424Y358887D01*
X174415Y358897D01*
X146429Y358897D01*
X146411Y358883D01*
X146397Y358884D01*
X143107Y355594D01*
X142560Y355367D01*
X142549Y355346D01*
X142537Y355336D01*
X142540Y355332D01*
X142533Y355326D01*
X142533Y330351D01*
X142547Y330334D01*
X142546Y330320D01*
X145190Y327675D01*
X146931Y323474D01*
X146931Y318926D01*
X145190Y314725D01*
X141975Y311510D01*
X137774Y309769D01*
X133226Y309769D01*
X129025Y311510D01*
X125810Y314725D01*
X124069Y318926D01*
X124069Y323474D01*
X125810Y327675D01*
X128454Y330320D01*
X128457Y330342D01*
X128467Y330351D01*
X128467Y356401D01*
X128453Y356419D01*
X128454Y356433D01*
X126933Y357954D01*
X126910Y357957D01*
X126901Y357967D01*
X107077Y357967D01*
X107034Y357932D01*
X107038Y357927D01*
X107033Y357923D01*
X107033Y206077D01*
X107068Y206034D01*
X107073Y206038D01*
X107077Y206033D01*
X109842Y206033D01*
X111033Y204842D01*
X111033Y185158D01*
X109842Y183967D01*
X90158Y183967D01*
G37*
%LPD*%
%LPC*%
G36*
X127077Y80823D02*
X127077Y80823D01*
X122969Y82525D01*
X122539Y82954D01*
X122517Y82957D01*
X122508Y82967D01*
X46101Y82967D01*
X43516Y84038D01*
X41538Y86016D01*
X40467Y88601D01*
X40467Y403923D01*
X40432Y403966D01*
X40427Y403962D01*
X40423Y403967D01*
X37658Y403967D01*
X36467Y405158D01*
X36467Y424842D01*
X37658Y426033D01*
X57342Y426033D01*
X58533Y424842D01*
X58533Y405158D01*
X57342Y403967D01*
X54577Y403967D01*
X54534Y403932D01*
X54538Y403927D01*
X54533Y403923D01*
X54533Y97077D01*
X54568Y97034D01*
X54573Y97038D01*
X54577Y97033D01*
X119257Y97033D01*
X119286Y97056D01*
X119298Y97060D01*
X119825Y98331D01*
X122969Y101475D01*
X127077Y103177D01*
X131523Y103177D01*
X135631Y101475D01*
X138775Y98331D01*
X140477Y94223D01*
X140477Y89777D01*
X138775Y85669D01*
X135631Y82525D01*
X131523Y80823D01*
X127077Y80823D01*
G37*
%LPD*%
%LPC*%
G36*
X152477Y106223D02*
X152477Y106223D01*
X148369Y107925D01*
X145225Y111069D01*
X143523Y115177D01*
X143523Y119623D01*
X145225Y123731D01*
X147654Y126161D01*
X147657Y126183D01*
X147667Y126192D01*
X147667Y166399D01*
X148738Y168984D01*
X150716Y170962D01*
X153301Y172033D01*
X290423Y172033D01*
X290466Y172068D01*
X290462Y172073D01*
X290467Y172077D01*
X290467Y258823D01*
X290432Y258866D01*
X290427Y258862D01*
X290423Y258867D01*
X263755Y258867D01*
X263738Y258853D01*
X263724Y258854D01*
X262156Y257286D01*
X258421Y255739D01*
X254379Y255739D01*
X250644Y257286D01*
X247786Y260144D01*
X246239Y263879D01*
X246239Y267921D01*
X247786Y271656D01*
X250644Y274514D01*
X254379Y276061D01*
X258421Y276061D01*
X262156Y274514D01*
X263724Y272946D01*
X263746Y272943D01*
X263754Y272934D01*
X263755Y272933D01*
X298899Y272933D01*
X301484Y271862D01*
X303462Y269884D01*
X304533Y267299D01*
X304533Y163601D01*
X303462Y161016D01*
X301484Y159038D01*
X298899Y157967D01*
X161777Y157967D01*
X161734Y157932D01*
X161738Y157927D01*
X161733Y157923D01*
X161733Y126192D01*
X161747Y126174D01*
X161746Y126161D01*
X164175Y123731D01*
X165877Y119623D01*
X165877Y115177D01*
X164175Y111069D01*
X161031Y107925D01*
X156923Y106223D01*
X152477Y106223D01*
G37*
%LPD*%
%LPC*%
G36*
X254379Y331939D02*
X254379Y331939D01*
X250644Y333486D01*
X247786Y336344D01*
X246239Y340079D01*
X246239Y344121D01*
X247786Y347856D01*
X250644Y350714D01*
X254379Y352261D01*
X258421Y352261D01*
X262156Y350714D01*
X263724Y349146D01*
X263746Y349143D01*
X263755Y349133D01*
X277923Y349133D01*
X277966Y349168D01*
X277962Y349173D01*
X277967Y349177D01*
X277967Y360423D01*
X277932Y360466D01*
X277927Y360462D01*
X277923Y360467D01*
X263755Y360467D01*
X263738Y360453D01*
X263724Y360454D01*
X262156Y358886D01*
X258421Y357339D01*
X254379Y357339D01*
X250644Y358886D01*
X247786Y361744D01*
X246239Y365479D01*
X246239Y369521D01*
X247786Y373256D01*
X250644Y376114D01*
X254379Y377661D01*
X258421Y377661D01*
X262156Y376114D01*
X263724Y374546D01*
X263746Y374543D01*
X263755Y374533D01*
X286399Y374533D01*
X288984Y373462D01*
X290962Y371484D01*
X292033Y368899D01*
X292033Y362077D01*
X292068Y362034D01*
X292073Y362038D01*
X292077Y362033D01*
X297923Y362033D01*
X297966Y362068D01*
X297962Y362073D01*
X297967Y362077D01*
X297967Y413923D01*
X297932Y413966D01*
X297927Y413962D01*
X297923Y413967D01*
X295158Y413967D01*
X293967Y415158D01*
X293967Y434842D01*
X295158Y436033D01*
X314842Y436033D01*
X316033Y434842D01*
X316033Y415158D01*
X314842Y413967D01*
X312077Y413967D01*
X312034Y413932D01*
X312038Y413927D01*
X312033Y413923D01*
X312033Y353601D01*
X310962Y351016D01*
X308984Y349038D01*
X306399Y347967D01*
X292077Y347967D01*
X292034Y347932D01*
X292038Y347927D01*
X292033Y347923D01*
X292033Y343601D01*
X290962Y341016D01*
X286084Y336138D01*
X283499Y335067D01*
X263755Y335067D01*
X263738Y335053D01*
X263724Y335054D01*
X262156Y333486D01*
X258421Y331939D01*
X254379Y331939D01*
G37*
%LPD*%
%LPC*%
G36*
X133426Y533569D02*
X133426Y533569D01*
X129225Y535310D01*
X126580Y537954D01*
X126558Y537957D01*
X126549Y537967D01*
X33577Y537967D01*
X33534Y537932D01*
X33538Y537927D01*
X33533Y537923D01*
X33533Y535158D01*
X32342Y533967D01*
X12658Y533967D01*
X11467Y535158D01*
X11467Y554842D01*
X12658Y556033D01*
X32342Y556033D01*
X33533Y554842D01*
X33533Y552077D01*
X33568Y552034D01*
X33573Y552038D01*
X33577Y552033D01*
X126549Y552033D01*
X126566Y552047D01*
X126580Y552046D01*
X129225Y554690D01*
X133426Y556431D01*
X137974Y556431D01*
X142175Y554690D01*
X144520Y552346D01*
X144542Y552343D01*
X144551Y552333D01*
X172845Y552333D01*
X172863Y552347D01*
X172876Y552346D01*
X174444Y553914D01*
X178179Y555461D01*
X182221Y555461D01*
X185956Y553914D01*
X188814Y551056D01*
X190361Y547321D01*
X190361Y543279D01*
X188814Y539544D01*
X185956Y536686D01*
X182221Y535139D01*
X178179Y535139D01*
X174444Y536686D01*
X172876Y538254D01*
X172856Y538256D01*
X172855Y538257D01*
X172853Y538257D01*
X172845Y538267D01*
X145151Y538267D01*
X145134Y538253D01*
X145120Y538254D01*
X142175Y535310D01*
X137974Y533569D01*
X133426Y533569D01*
G37*
%LPD*%
%LPC*%
G36*
X177877Y80823D02*
X177877Y80823D01*
X173769Y82525D01*
X170625Y85669D01*
X168923Y89777D01*
X168923Y94223D01*
X170625Y98331D01*
X173769Y101475D01*
X177877Y103177D01*
X182323Y103177D01*
X186431Y101475D01*
X188861Y99046D01*
X188883Y99043D01*
X188892Y99033D01*
X235423Y99033D01*
X235466Y99068D01*
X235462Y99073D01*
X235467Y99077D01*
X235467Y108923D01*
X235432Y108966D01*
X235427Y108962D01*
X235423Y108967D01*
X232658Y108967D01*
X231467Y110158D01*
X231467Y129842D01*
X232658Y131033D01*
X252342Y131033D01*
X253533Y129842D01*
X253533Y110158D01*
X252342Y108967D01*
X249577Y108967D01*
X249534Y108932D01*
X249538Y108927D01*
X249533Y108923D01*
X249533Y90601D01*
X248462Y88016D01*
X246484Y86038D01*
X243899Y84967D01*
X188892Y84967D01*
X188874Y84953D01*
X188861Y84954D01*
X186431Y82525D01*
X182323Y80823D01*
X177877Y80823D01*
G37*
%LPD*%
%LPC*%
G36*
X133426Y168269D02*
X133426Y168269D01*
X129225Y170010D01*
X126010Y173225D01*
X124269Y177426D01*
X124269Y181974D01*
X126010Y186175D01*
X129225Y189390D01*
X133426Y191131D01*
X137974Y191131D01*
X142175Y189390D01*
X144520Y187046D01*
X144542Y187043D01*
X144551Y187033D01*
X173123Y187033D01*
X173166Y187068D01*
X173162Y187073D01*
X173167Y187077D01*
X173167Y207745D01*
X173153Y207762D01*
X173154Y207776D01*
X171586Y209344D01*
X170039Y213079D01*
X170039Y217121D01*
X171586Y220856D01*
X174444Y223714D01*
X178179Y225261D01*
X182221Y225261D01*
X185956Y223714D01*
X188814Y220856D01*
X190361Y217121D01*
X190361Y213079D01*
X188814Y209344D01*
X187246Y207776D01*
X187245Y207764D01*
X187242Y207763D01*
X187244Y207760D01*
X187243Y207754D01*
X187233Y207745D01*
X187233Y178801D01*
X186162Y176216D01*
X183984Y174038D01*
X181399Y172967D01*
X145151Y172967D01*
X145134Y172953D01*
X145120Y172954D01*
X142175Y170010D01*
X137974Y168269D01*
X133426Y168269D01*
G37*
%LPD*%
%LPC*%
G36*
X177877Y106223D02*
X177877Y106223D01*
X173769Y107925D01*
X170625Y111069D01*
X168923Y115177D01*
X168923Y119623D01*
X170625Y123731D01*
X173769Y126875D01*
X177877Y128577D01*
X182323Y128577D01*
X186431Y126875D01*
X188861Y124446D01*
X188883Y124443D01*
X188892Y124433D01*
X207923Y124433D01*
X207966Y124468D01*
X207962Y124473D01*
X207967Y124477D01*
X207967Y128923D01*
X207932Y128966D01*
X207927Y128962D01*
X207923Y128967D01*
X205158Y128967D01*
X203967Y130158D01*
X203967Y149842D01*
X205158Y151033D01*
X224842Y151033D01*
X226033Y149842D01*
X226033Y130158D01*
X224842Y128967D01*
X222077Y128967D01*
X222034Y128932D01*
X222038Y128927D01*
X222033Y128923D01*
X222033Y116001D01*
X220962Y113416D01*
X218984Y111438D01*
X216399Y110367D01*
X188892Y110367D01*
X188874Y110353D01*
X188861Y110354D01*
X186431Y107925D01*
X182323Y106223D01*
X177877Y106223D01*
G37*
%LPD*%
%LPC*%
G36*
X133426Y244469D02*
X133426Y244469D01*
X129225Y246210D01*
X126010Y249425D01*
X124269Y253626D01*
X124269Y258174D01*
X126010Y262375D01*
X128454Y264820D01*
X128457Y264842D01*
X128467Y264851D01*
X128467Y286649D01*
X128453Y286666D01*
X128454Y286680D01*
X125810Y289325D01*
X124069Y293526D01*
X124069Y298074D01*
X125810Y302275D01*
X129025Y305490D01*
X133226Y307231D01*
X137774Y307231D01*
X141975Y305490D01*
X145190Y302275D01*
X146931Y298074D01*
X146931Y293526D01*
X145190Y289325D01*
X142546Y286680D01*
X142544Y286667D01*
X142536Y286660D01*
X142540Y286655D01*
X142533Y286649D01*
X142533Y265251D01*
X142547Y265234D01*
X142546Y265220D01*
X145390Y262375D01*
X147131Y258174D01*
X147131Y253626D01*
X145390Y249425D01*
X142175Y246210D01*
X137974Y244469D01*
X133426Y244469D01*
G37*
%LPD*%
%LPC*%
G36*
X285158Y278967D02*
X285158Y278967D01*
X283967Y280158D01*
X283967Y284223D01*
X283932Y284266D01*
X283927Y284262D01*
X283923Y284267D01*
X263755Y284267D01*
X263738Y284253D01*
X263724Y284254D01*
X262156Y282686D01*
X258421Y281139D01*
X254379Y281139D01*
X250644Y282686D01*
X247786Y285544D01*
X246239Y289279D01*
X246239Y293321D01*
X247786Y297056D01*
X250644Y299914D01*
X254379Y301461D01*
X258421Y301461D01*
X262156Y299914D01*
X263724Y298346D01*
X263746Y298343D01*
X263754Y298334D01*
X263755Y298333D01*
X283923Y298333D01*
X283966Y298368D01*
X283966Y298369D01*
X283963Y298373D01*
X283967Y298377D01*
X283967Y299842D01*
X285158Y301033D01*
X304842Y301033D01*
X306033Y299842D01*
X306033Y280158D01*
X304842Y278967D01*
X285158Y278967D01*
G37*
%LPD*%
%LPC*%
G36*
X254379Y535139D02*
X254379Y535139D01*
X250644Y536686D01*
X247786Y539544D01*
X246239Y543279D01*
X246239Y547321D01*
X247786Y551056D01*
X250644Y553914D01*
X254379Y555461D01*
X258421Y555461D01*
X262156Y553914D01*
X265014Y551056D01*
X266561Y547321D01*
X266561Y543279D01*
X265014Y539544D01*
X262156Y536686D01*
X258421Y535139D01*
X254379Y535139D01*
G37*
%LPD*%
%LPC*%
G36*
X254379Y509739D02*
X254379Y509739D01*
X250644Y511286D01*
X247786Y514144D01*
X246239Y517879D01*
X246239Y521921D01*
X247786Y525656D01*
X250644Y528514D01*
X254379Y530061D01*
X258421Y530061D01*
X262156Y528514D01*
X265014Y525656D01*
X266561Y521921D01*
X266561Y517879D01*
X265014Y514144D01*
X262156Y511286D01*
X258421Y509739D01*
X254379Y509739D01*
G37*
%LPD*%
%LPC*%
G36*
X178179Y509739D02*
X178179Y509739D01*
X174444Y511286D01*
X171586Y514144D01*
X170039Y517879D01*
X170039Y521921D01*
X171586Y525656D01*
X174444Y528514D01*
X178179Y530061D01*
X182221Y530061D01*
X185956Y528514D01*
X188814Y525656D01*
X190361Y521921D01*
X190361Y517879D01*
X188814Y514144D01*
X185956Y511286D01*
X182221Y509739D01*
X178179Y509739D01*
G37*
%LPD*%
%LPC*%
G36*
X254379Y484339D02*
X254379Y484339D01*
X250644Y485886D01*
X247786Y488744D01*
X246239Y492479D01*
X246239Y496521D01*
X247786Y500256D01*
X250644Y503114D01*
X254379Y504661D01*
X258421Y504661D01*
X262156Y503114D01*
X265014Y500256D01*
X266561Y496521D01*
X266561Y492479D01*
X265014Y488744D01*
X262156Y485886D01*
X258421Y484339D01*
X254379Y484339D01*
G37*
%LPD*%
%LPC*%
G36*
X178179Y484339D02*
X178179Y484339D01*
X174444Y485886D01*
X171586Y488744D01*
X170039Y492479D01*
X170039Y496521D01*
X171586Y500256D01*
X174444Y503114D01*
X178179Y504661D01*
X182221Y504661D01*
X185956Y503114D01*
X188814Y500256D01*
X190361Y496521D01*
X190361Y492479D01*
X188814Y488744D01*
X185956Y485886D01*
X182221Y484339D01*
X178179Y484339D01*
G37*
%LPD*%
%LPC*%
G36*
X178179Y458939D02*
X178179Y458939D01*
X174444Y460486D01*
X171586Y463344D01*
X170039Y467079D01*
X170039Y471121D01*
X171586Y474856D01*
X174444Y477714D01*
X178179Y479261D01*
X182221Y479261D01*
X185956Y477714D01*
X188814Y474856D01*
X190361Y471121D01*
X190361Y467079D01*
X188814Y463344D01*
X185956Y460486D01*
X182221Y458939D01*
X178179Y458939D01*
G37*
%LPD*%
%LPC*%
G36*
X254379Y458939D02*
X254379Y458939D01*
X250644Y460486D01*
X247786Y463344D01*
X246239Y467079D01*
X246239Y471121D01*
X247786Y474856D01*
X250644Y477714D01*
X254379Y479261D01*
X258421Y479261D01*
X262156Y477714D01*
X265014Y474856D01*
X266561Y471121D01*
X266561Y467079D01*
X265014Y463344D01*
X262156Y460486D01*
X258421Y458939D01*
X254379Y458939D01*
G37*
%LPD*%
%LPC*%
G36*
X254379Y433539D02*
X254379Y433539D01*
X250644Y435086D01*
X247786Y437944D01*
X246239Y441679D01*
X246239Y445721D01*
X247786Y449456D01*
X250644Y452314D01*
X254379Y453861D01*
X258421Y453861D01*
X262156Y452314D01*
X265014Y449456D01*
X266561Y445721D01*
X266561Y441679D01*
X265014Y437944D01*
X262156Y435086D01*
X258421Y433539D01*
X254379Y433539D01*
G37*
%LPD*%
%LPC*%
G36*
X178179Y433539D02*
X178179Y433539D01*
X174444Y435086D01*
X171586Y437944D01*
X170039Y441679D01*
X170039Y445721D01*
X171586Y449456D01*
X174444Y452314D01*
X178179Y453861D01*
X182221Y453861D01*
X185956Y452314D01*
X188814Y449456D01*
X190361Y445721D01*
X190361Y441679D01*
X188814Y437944D01*
X185956Y435086D01*
X182221Y433539D01*
X178179Y433539D01*
G37*
%LPD*%
%LPC*%
G36*
X254379Y408139D02*
X254379Y408139D01*
X250644Y409686D01*
X247786Y412544D01*
X246239Y416279D01*
X246239Y420321D01*
X247786Y424056D01*
X250644Y426914D01*
X254379Y428461D01*
X258421Y428461D01*
X262156Y426914D01*
X265014Y424056D01*
X266561Y420321D01*
X266561Y416279D01*
X265014Y412544D01*
X262156Y409686D01*
X258421Y408139D01*
X254379Y408139D01*
G37*
%LPD*%
%LPC*%
G36*
X178179Y408139D02*
X178179Y408139D01*
X174444Y409686D01*
X171586Y412544D01*
X170039Y416279D01*
X170039Y420321D01*
X171586Y424056D01*
X174444Y426914D01*
X178179Y428461D01*
X182221Y428461D01*
X185956Y426914D01*
X188814Y424056D01*
X190361Y420321D01*
X190361Y416279D01*
X188814Y412544D01*
X185956Y409686D01*
X182221Y408139D01*
X178179Y408139D01*
G37*
%LPD*%
%LPC*%
G36*
X178179Y331939D02*
X178179Y331939D01*
X174444Y333486D01*
X171586Y336344D01*
X170039Y340079D01*
X170039Y344121D01*
X171586Y347856D01*
X174444Y350714D01*
X178179Y352261D01*
X182221Y352261D01*
X185956Y350714D01*
X188814Y347856D01*
X190361Y344121D01*
X190361Y340079D01*
X188814Y336344D01*
X185956Y333486D01*
X182221Y331939D01*
X178179Y331939D01*
G37*
%LPD*%
%LPC*%
G36*
X178179Y306539D02*
X178179Y306539D01*
X174444Y308086D01*
X171586Y310944D01*
X170039Y314679D01*
X170039Y318721D01*
X171586Y322456D01*
X174444Y325314D01*
X178179Y326861D01*
X182221Y326861D01*
X185956Y325314D01*
X188814Y322456D01*
X190361Y318721D01*
X190361Y314679D01*
X188814Y310944D01*
X185956Y308086D01*
X182221Y306539D01*
X178179Y306539D01*
G37*
%LPD*%
%LPC*%
G36*
X178179Y281139D02*
X178179Y281139D01*
X174444Y282686D01*
X171586Y285544D01*
X170039Y289279D01*
X170039Y293321D01*
X171586Y297056D01*
X174444Y299914D01*
X178179Y301461D01*
X182221Y301461D01*
X185956Y299914D01*
X188814Y297056D01*
X190361Y293321D01*
X190361Y289279D01*
X188814Y285544D01*
X185956Y282686D01*
X182221Y281139D01*
X178179Y281139D01*
G37*
%LPD*%
%LPC*%
G36*
X178179Y255739D02*
X178179Y255739D01*
X174444Y257286D01*
X171586Y260144D01*
X170039Y263879D01*
X170039Y267921D01*
X171586Y271656D01*
X174444Y274514D01*
X178179Y276061D01*
X182221Y276061D01*
X185956Y274514D01*
X188814Y271656D01*
X190361Y267921D01*
X190361Y263879D01*
X188814Y260144D01*
X185956Y257286D01*
X182221Y255739D01*
X178179Y255739D01*
G37*
%LPD*%
%LPC*%
G36*
X254379Y230339D02*
X254379Y230339D01*
X250644Y231886D01*
X247786Y234744D01*
X246239Y238479D01*
X246239Y242521D01*
X247786Y246256D01*
X250644Y249114D01*
X254379Y250661D01*
X258421Y250661D01*
X262156Y249114D01*
X265014Y246256D01*
X266561Y242521D01*
X266561Y238479D01*
X265014Y234744D01*
X262156Y231886D01*
X258421Y230339D01*
X254379Y230339D01*
G37*
%LPD*%
%LPC*%
G36*
X178179Y230339D02*
X178179Y230339D01*
X174444Y231886D01*
X171586Y234744D01*
X170039Y238479D01*
X170039Y242521D01*
X171586Y246256D01*
X174444Y249114D01*
X178179Y250661D01*
X182221Y250661D01*
X185956Y249114D01*
X188814Y246256D01*
X190361Y242521D01*
X190361Y238479D01*
X188814Y234744D01*
X185956Y231886D01*
X182221Y230339D01*
X178179Y230339D01*
G37*
%LPD*%
%LPC*%
G36*
X254379Y204939D02*
X254379Y204939D01*
X250644Y206486D01*
X247786Y209344D01*
X246239Y213079D01*
X246239Y217121D01*
X247786Y220856D01*
X250644Y223714D01*
X254379Y225261D01*
X258421Y225261D01*
X262156Y223714D01*
X265014Y220856D01*
X266561Y217121D01*
X266561Y213079D01*
X265014Y209344D01*
X262156Y206486D01*
X258421Y204939D01*
X254379Y204939D01*
G37*
%LPD*%
D10*
X136200Y365930D03*
X136200Y393870D03*
D11*
X129300Y92000D03*
X154700Y92000D03*
X180100Y92000D03*
X180100Y117400D03*
X154700Y117400D03*
X129300Y117400D03*
D12*
X135500Y295800D03*
X135500Y321200D03*
X135700Y255900D03*
X135700Y179700D03*
X135700Y545000D03*
X135700Y468800D03*
D13*
X180200Y545300D03*
X180200Y519900D03*
X180200Y494500D03*
X180200Y469100D03*
X180200Y443700D03*
X180200Y418300D03*
X180200Y392900D03*
X180200Y367500D03*
X180200Y342100D03*
X180200Y316700D03*
X180200Y291300D03*
X180200Y265900D03*
X180200Y240500D03*
X180200Y215100D03*
X256400Y215100D03*
X256400Y240500D03*
X256400Y265900D03*
X256400Y291300D03*
X256400Y316700D03*
X256400Y342100D03*
X256400Y367500D03*
X256400Y392900D03*
X256400Y418300D03*
X256400Y443700D03*
X256400Y469100D03*
X256400Y494500D03*
X256400Y519900D03*
X256400Y545300D03*
D14*
X305000Y425000D03*
D15*
X282100Y342100D02*
X256400Y342100D01*
X282100Y342100D02*
X285000Y345000D01*
X285000Y355000D01*
X285000Y367500D01*
X256400Y367500D01*
X285000Y355000D02*
X305000Y355000D01*
X305000Y425000D01*
X129300Y117400D02*
X72500Y117400D01*
X72500Y393870D01*
X135700Y465000D02*
X135700Y468800D01*
X135700Y465000D02*
X75000Y465000D01*
D14*
X75000Y465000D03*
D15*
X136200Y393870D02*
X180200Y393870D01*
X180200Y392900D01*
X136200Y393870D02*
X135700Y393870D01*
X135700Y468800D01*
X135700Y393870D02*
X72500Y393870D01*
X154700Y165000D02*
X154700Y117400D01*
X256400Y265900D02*
X297500Y265900D01*
X297500Y165000D02*
X154700Y165000D01*
X297500Y165000D02*
X297500Y265900D01*
X256400Y392900D02*
X217500Y392900D01*
X217500Y367500D01*
X180200Y367500D02*
X178630Y365930D01*
X136200Y365930D01*
X180200Y367500D02*
X217500Y367500D01*
X215000Y117400D02*
X180100Y117400D01*
X215000Y117400D02*
X215000Y140000D01*
D14*
X215000Y140000D03*
X100000Y195000D03*
D15*
X100000Y365000D01*
X136200Y365000D02*
X136200Y365930D01*
X136200Y365000D02*
X100000Y365000D01*
X135500Y365930D02*
X135500Y321200D01*
X135500Y365930D02*
X136200Y365930D01*
X256400Y291300D02*
X293700Y291300D01*
X295000Y290000D01*
D14*
X295000Y290000D03*
D15*
X129300Y92000D02*
X129300Y90000D01*
X47500Y90000D01*
X47500Y415000D01*
D14*
X47500Y415000D03*
D15*
X154700Y92000D02*
X154700Y60000D01*
X327500Y60000D01*
X256400Y316700D02*
X256400Y317500D01*
X327500Y317500D02*
X327500Y60000D01*
X327500Y317500D02*
X256400Y317500D01*
X242500Y92000D02*
X180100Y92000D01*
X242500Y92000D02*
X242500Y120000D01*
D14*
X242500Y120000D03*
X22500Y545000D03*
D15*
X135700Y545000D01*
X136000Y545300D01*
X180200Y545300D01*
X136000Y180000D02*
X135700Y179700D01*
X136000Y180000D02*
X180000Y180000D01*
X180200Y180200D01*
X180200Y215100D01*
X135700Y255900D02*
X135500Y255900D01*
X135500Y295800D01*
D16*
X0Y0D02*
X0Y635000D01*
X0Y0D02*
X360000Y0D01*
X360000Y635000D01*
X0Y635000D01*
M02*
