M48
;GenerationSoftware,Autodesk,EAGLE,9.6.2*%
;CreationDate,2021-01-11T15:51:39Z*%
FMAT,2
ICI,OFF
METRIC,TZ,000.000
T4C0.813
T3C0.900
T2C1.016
T1C1.200
%
G90
M71
T1
X30500Y42500
X7500Y46500
X21500Y14000
X10000Y19500
X29500Y29000
X4750Y41500
X24250Y12000
X2250Y54500
X12930Y9200
X15470Y9200
X18010Y9200
X18010Y11740
X15470Y11740
X12930Y11740
T2
X13620Y36593
X13620Y39387
T3
X13570Y54500
X13570Y46880
X13570Y25590
X13570Y17970
T4
X13550Y29580
X13550Y32120
X18020Y54530
X18020Y51990
X18020Y49450
X18020Y46910
X18020Y44370
X18020Y41830
X18020Y39290
X18020Y36750
X18020Y34210
X18020Y31670
X18020Y29130
X18020Y26590
X18020Y24050
X18020Y21510
X25640Y21510
X25640Y24050
X25640Y26590
X25640Y29130
X25640Y31670
X25640Y34210
X25640Y36750
X25640Y39290
X25640Y41830
X25640Y44370
X25640Y46910
X25640Y49450
X25640Y51990
X25640Y54530
M30